<svg width="399" height="93" viewBox="0 0 399 93" fill="none" xmlns="http://www.w3.org/2000/svg">
<g clip-path="url(#clip0_21_4)">
<path d="M160.871 0.127327C156.137 0.3022 151.096 0.651962 144.568 1.23905C143.777 1.314 141.369 1.57632 139.236 1.82614C134.761 2.35077 134.486 2.35077 130.899 2.12593C127.797 1.92607 122.658 2.00101 119.298 2.3008C113.222 2.83794 108.779 3.52496 96.7737 5.78587C88.2748 7.39725 83.3305 8.19669 78.871 8.72133C68.0776 9.98295 52.9378 13.6554 39.8016 18.1897C36.7155 19.2515 27.6025 22.8115 26.5038 23.3736C25.2596 24.0231 24.4194 24.8226 24.3063 25.4596C24.2255 25.9093 24.274 26.0093 24.7587 26.384C26.3422 27.5956 32.2721 28.2702 39.0422 27.9829C42.71 27.833 43.9541 27.6956 48.1713 26.9836C49.8194 26.7088 51.5321 26.4589 51.9684 26.4215C52.7601 26.3465 52.7762 26.3465 52.2915 26.5339C52.033 26.6338 50.3203 27.0835 48.4944 27.5332C37.3779 30.2938 34.2918 31.1432 31.3188 32.2049C30.527 32.4922 28.1357 33.2542 25.9867 33.9162C18.4572 36.2021 16.2274 36.9891 13.3029 38.3132C11.0893 39.3375 8.92415 40.6116 7.46996 41.7483L6.43586 42.5602L7.2599 42.885C10.2976 44.0717 14.6925 44.5838 19.7175 44.334C21.1879 44.259 24.7264 43.9592 27.5702 43.6844C32.1751 43.2222 33.1123 43.1598 36.2146 43.1598C39.333 43.1473 39.8501 43.1848 41.1911 43.4471C41.999 43.597 42.6777 43.7844 42.6777 43.8468C42.6777 44.1841 38.6059 46.3825 33.0638 49.0432C27.0854 51.9287 24.3548 53.4276 22.0281 55.1264C19.8629 56.7128 18.4411 58.4991 18.1502 59.9855L18.0048 60.7225L18.4249 60.6476C18.6511 60.6101 19.2974 60.5352 19.8468 60.4977C20.687 60.4227 20.8647 60.4477 20.8647 60.5976C20.8647 60.8974 19.5559 61.7718 16.5829 63.4331C9.52199 67.4054 7.77695 68.4671 5.75724 70.016C4.39999 71.0528 3.33358 72.2145 3.46284 72.4893C3.5921 72.7267 5.07861 72.8641 6.62975 72.7766C7.85774 72.7017 8.61715 72.5892 11.8972 72.0022C15.775 71.3151 17.4716 71.7149 18.0371 73.4511C18.1341 73.7759 18.1664 73.7884 19.1035 73.726C19.9599 73.6635 20.0568 73.676 20.0568 73.8883C20.0568 74.2381 18.5218 75.2749 15.3388 77.0986C6.46818 82.1201 4.82009 83.1569 4.23841 84.0937C3.80215 84.7932 3.81831 85.1929 4.27072 85.5427C5.06245 86.1048 6.90443 86.1173 12.4627 85.5927C13.6584 85.4802 15.8073 85.3803 17.2292 85.3803C19.459 85.3678 19.9599 85.4053 20.9455 85.6426C22.6905 86.0673 23.6762 86.8418 24.0155 88.041L24.1286 88.4782L24.5002 87.7911C25.0819 86.6794 25.5343 86.0673 26.1483 85.5427C27.0854 84.7433 27.5055 84.6184 29.1859 84.6808C32.7245 84.8057 33.6293 84.7558 34.7604 84.3685C35.746 84.0188 37.1517 83.2443 37.9273 82.6197L38.2828 82.3449L39.7046 82.8821C42.2414 83.8189 44.552 84.0188 50.6273 83.8189C56.4602 83.6066 60.435 83.9188 63.0364 84.7807L63.7635 85.0181L63.7797 85.9424C63.7797 86.4546 63.8766 86.9917 63.9735 87.1416C65.1369 88.7904 70.3397 84.6433 72.0847 80.6836C72.3271 80.1465 72.4564 79.5219 72.4725 78.8349L72.5048 77.7856L74.4276 77.186C75.494 76.8613 78.0469 76.0243 80.0828 75.3123C86.8852 72.9765 90.3107 72.0022 93.7038 71.4276C95.7235 71.0903 100.005 70.9654 101.783 71.1902C103.447 71.3901 105.321 71.8523 106.953 72.4643C108.262 72.9515 108.327 72.964 109.619 72.914C110.492 72.8641 111.477 72.7142 112.528 72.4518C116.05 71.565 117.617 71.6899 119.992 73.0639C120.445 73.3137 120.994 73.5761 121.204 73.626C123.159 74.0882 125.131 74.9751 127.36 76.3866C128.281 76.9612 129.59 77.7856 130.253 78.2103C132.45 79.5969 133.807 79.8592 135.52 79.2346C136.005 79.0597 136.829 78.61 137.346 78.2353L138.283 77.5608L138.574 78.1604C139.382 79.8217 140.335 80.7835 141.498 81.1333C142.872 81.5455 144.471 81.1083 147.137 79.6093C150.708 77.5983 152.308 76.9362 153.552 76.9362C154.748 76.9487 155.976 77.6857 156.687 78.8474C157.284 79.8217 163.279 82.5573 168.385 84.1812C173.248 85.7176 178.112 86.7044 184.139 87.3789C186.918 87.6787 194.916 87.7537 198.325 87.5038C203.108 87.1541 204.724 87.2415 209.167 88.1159C210.702 88.4157 212.576 88.728 213.319 88.8154C215.145 89.0153 218.086 88.8904 220.494 88.4906C227.635 87.3165 230.366 87.4289 238.267 89.2526C244.407 90.6641 246.928 90.9639 250.337 90.7016C252.147 90.5642 252.454 90.5642 253.778 90.789C256.186 91.2013 258.674 91.3387 261.857 91.2637C265.105 91.1763 266.688 91.0389 273.572 90.2269C281.247 89.3276 282.135 89.2526 286.417 89.2526C290.877 89.2651 292.46 89.4275 296.193 90.3019C299.036 90.9639 301.298 91.2762 304.643 91.4511C307.357 91.601 308.731 91.576 319.621 91.1638C326.181 90.9264 331.723 91.4261 335.989 92.6378L337.233 93L339.14 92.8501C340.174 92.7627 342.63 92.5753 344.585 92.4254C352.874 91.8008 357.689 91.0139 361.098 89.7148C363.166 88.9278 364.879 87.6912 365.251 86.7419C365.331 86.5045 365.267 86.492 363.279 86.4796C359.999 86.4546 358.303 86.0798 351.646 83.8814C349.852 83.2818 347.639 82.6073 346.734 82.3699C343.373 81.508 340.142 81.3456 337.879 81.9577C336.975 82.195 336.49 82.2325 334.406 82.245C332.095 82.245 331.901 82.22 330.285 81.8328C329.348 81.5955 327.215 80.9709 325.519 80.4338C323.838 79.8966 322.174 79.3845 321.819 79.2971L321.189 79.1222L321.819 79.0347C323.111 78.8474 328.314 78.7849 330.932 78.9223C332.386 78.9973 336.134 79.2846 339.253 79.5594C350.046 80.4962 353.148 80.5462 359.369 79.8217C360.565 79.6843 362.358 79.4719 363.328 79.3595C365.687 79.0972 370.146 78.2103 372.732 77.4858C377.369 76.1992 379.566 74.9126 378.468 74.1507C377.724 73.626 375.672 73.2263 372.554 73.0015C371.956 72.9515 371.52 72.8765 371.584 72.8266C371.665 72.7641 373.006 72.3144 374.557 71.8148C382.814 69.1791 383.977 67.9175 378.468 67.5553C374.137 67.268 370.389 66.6434 369.581 66.0563C369.08 65.7066 369.177 65.3318 369.839 64.9945C370.647 64.5698 373.992 63.7579 375.979 63.5081C376.513 63.4456 376.723 63.3457 376.9 63.0584C377.547 62.0966 379.049 61.2222 381.101 60.6351C381.699 60.4602 383.719 60.0105 385.577 59.6233C390.78 58.574 392.072 58.1868 393.414 57.2749C394.157 56.7628 394.739 55.9883 394.755 55.5012C394.755 55.2513 394.642 55.2139 393.591 55.1389C386.805 54.6518 379.841 53.0904 378.193 51.6913C377.466 51.0543 377.45 50.667 378.193 50.1424C379.243 49.368 383.089 48.3936 385.626 48.2562C389.81 48.0314 398.891 46.42 401.476 45.4582C402.72 44.996 402.866 44.7587 402.106 44.5213C401.492 44.309 398.584 44.0841 396.613 44.0841C394.981 44.0841 394.205 43.8343 394.141 43.2722C394.108 42.9599 394.302 42.6976 395.239 41.8357C396.984 40.2118 396.774 39.6997 394.189 39.2875C391.151 38.8003 387.823 38.4006 384.171 38.0883C380.52 37.776 377.191 37.4388 376.626 37.3264C375.268 37.0516 376.125 36.8142 379.469 36.5269C380.73 36.4145 382.62 36.2521 383.687 36.1522C388.437 35.7025 397.437 33.4666 399.247 32.2924C399.957 31.8177 399.925 31.5429 399.117 31.2931C398.18 31.0058 394.852 30.8059 392.493 30.8933C389.73 31.0058 374.687 31.0058 373.459 30.8933C371.504 30.731 372.489 30.4811 376.432 30.1564C382.2 29.6817 385.529 29.0571 386.692 28.2077C387.161 27.8705 387.177 27.8205 386.967 27.5707C386.837 27.4208 386.45 27.2209 386.094 27.121C385.092 26.8462 381.909 26.7962 378.645 27.021C370.26 27.5956 364.637 26.9461 349.19 23.6109C341.256 21.8996 334.195 20.7254 331.788 20.7254C330.592 20.7254 330.35 21.2501 330.867 22.749C330.996 23.1612 331.077 23.586 331.012 23.6859C330.867 23.9982 330.027 23.7858 328.379 23.0238C325.535 21.7123 320.09 20.7629 311.3 20.0384C300.652 19.164 297.566 18.7768 293.526 17.765C291.248 17.2029 290.667 16.9656 290.101 16.391C289.665 15.9538 289.649 15.8539 289.568 14.2175C289.487 12.5936 289.455 12.4812 289.018 11.994C288.065 10.9323 285.044 10.1578 281.327 10.0204C278.839 9.93298 277.094 10.0829 272.117 10.7949C266.204 11.6568 264.313 11.7692 261.696 11.4194C259.127 11.0697 256.994 10.2453 255.087 8.87122L253.94 8.03431L252.89 8.19669C251.322 8.44652 247.606 8.43403 245.893 8.1842C243.373 7.80946 240.804 7.15992 236.247 5.76089C229.413 3.66235 227.522 3.22516 224.129 2.97533C221.237 2.76299 220.057 2.91288 216.858 3.89969C210.266 5.92328 205.968 6.73521 201.815 6.73521C196.338 6.73521 192.201 5.36117 187.855 2.10094L185.916 0.639465L182.846 0.439606C176.124 0.00241089 167.512 -0.122498 160.871 0.127327Z" fill="#DFD79A"/>
</g>
<defs>
<clipPath id="clip0_21_4">
<rect width="399" height="93" fill="white"/>
</clipPath>
</defs>
</svg>
