<?xml version="1.0" standalone="no"?>
<!DOCTYPE svg PUBLIC "-//W3C//DTD SVG 20010904//EN"
 "http://www.w3.org/TR/2001/REC-SVG-20010904/DTD/svg10.dtd">
<svg version="1.0" xmlns="http://www.w3.org/2000/svg"
 width="1300.000000pt" height="1300.000000pt" viewBox="0 0 1300.000000 1300.000000"
 preserveAspectRatio="xMidYMid meet">

<g transform="translate(0.000000,1300.000000) scale(0.100000,-0.100000)"
fill="#000000" stroke="none">
<path d="M300 12995 c0 -10 108 -85 124 -85 30 0 30 30 0 61 -23 24 -36 29
-76 29 -26 0 -48 -2 -48 -5z"/>
<path d="M478 12993 c6 -2 18 -2 25 0 6 3 1 5 -13 5 -14 0 -19 -2 -12 -5z"/>
<path d="M1136 12954 c-26 -189 19 -446 100 -569 18 -27 40 -67 50 -87 9 -20
22 -34 27 -31 6 3 7 1 4 -5 -14 -21 90 -126 173 -177 114 -69 250 -105 399
-105 216 0 397 74 541 219 176 179 213 378 109 589 -26 53 -62 106 -101 147
l-61 65 -361 -2 -361 -3 -30 -60 c-25 -50 -31 -74 -34 -148 -3 -77 1 -99 24
-163 54 -149 154 -214 328 -214 114 0 162 13 203 54 85 85 56 229 -66 318 -65
48 -172 47 -188 -1 -4 -10 2 -12 22 -7 35 9 90 -17 105 -50 36 -80 -24 -166
-116 -166 -47 0 -78 24 -98 77 -22 57 -16 113 19 166 94 141 322 82 408 -106
31 -68 31 -164 0 -222 -75 -142 -363 -176 -535 -62 -158 105 -213 358 -122
572 7 16 -7 17 -213 17 l-219 0 -7 -46z"/>
<path d="M4084 12967 c7 -19 30 -55 49 -80 57 -74 60 -159 7 -187 -43 -23 -70
13 -104 141 -14 51 -34 101 -44 112 -41 41 -89 -11 -78 -83 3 -19 22 -73 42
-119 30 -71 35 -92 31 -134 -5 -56 -26 -80 -67 -75 -30 4 -47 48 -85 226 -17
77 -32 124 -45 137 -20 19 -20 19 -47 -1 -67 -50 -67 -117 2 -263 52 -112 60
-176 25 -211 -45 -45 -111 -34 -135 23 -7 18 -19 98 -25 178 -15 194 -22 219
-60 219 -46 0 -52 -110 -14 -250 14 -53 26 -125 26 -163 2 -61 -1 -70 -28 -98
-51 -54 -176 -108 -201 -88 -22 19 -15 41 51 141 92 141 106 224 43 262 -15 9
-24 4 -56 -30 -46 -49 -75 -130 -95 -267 -8 -53 -21 -109 -28 -124 -21 -43
-70 -69 -163 -86 -98 -18 -117 -29 -113 -66 4 -36 29 -37 121 -6 125 42 136
39 323 -96 195 -141 297 -184 337 -144 57 56 -45 146 -244 216 -141 50 -149
54 -149 84 0 37 51 65 120 65 75 0 132 -29 265 -135 159 -125 251 -167 288
-130 54 54 -40 157 -198 216 -161 60 -207 107 -152 155 16 13 39 24 52 24 31
0 130 -37 215 -80 95 -48 166 -70 224 -70 60 1 89 19 89 57 0 54 -97 106 -247
132 -74 13 -106 34 -106 66 0 32 31 48 93 46 38 0 79 -14 170 -56 139 -64 197
-77 227 -50 27 24 25 36 -7 68 -37 35 -83 52 -173 66 -118 19 -152 39 -135 82
20 52 113 53 233 4 132 -54 194 -55 226 -2 19 32 -49 81 -147 107 -94 25 -127
43 -127 68 0 47 66 54 190 22 41 -11 94 -20 116 -20 50 0 94 30 94 65 0 31
-44 65 -86 65 -18 0 -55 -5 -83 -11 -67 -14 -95 0 -89 44 3 18 8 40 13 50 6
15 1 17 -36 17 -43 0 -44 -1 -46 -36 -2 -39 -27 -74 -52 -74 -23 1 -44 20 -74
68 -27 42 -28 42 -87 42 l-60 0 14 -33z"/>
<path d="M6032 12874 l3 -127 -75 -44 c-175 -104 -235 -189 -184 -261 32 -46
91 -66 194 -67 52 0 112 4 132 8 l37 8 54 -83 c54 -83 104 -136 155 -162 49
-25 283 -96 316 -96 20 0 40 8 51 20 18 20 18 23 -3 95 -12 41 -22 100 -22
131 0 136 135 416 271 559 42 45 67 74 108 128 13 16 -13 17 -513 17 l-526 0
2 -126z m502 -216 c10 -13 16 -44 16 -74 0 -42 -5 -59 -26 -83 -14 -17 -34
-31 -44 -31 -27 0 -60 47 -60 86 0 95 73 161 114 102z"/>
<path d="M7180 12984 c0 -8 -13 -28 -28 -42 -192 -180 -211 -204 -260 -334
-17 -42 -39 -90 -51 -106 -29 -41 -28 -79 3 -93 18 -9 38 -7 82 5 127 36 272
98 322 137 50 38 101 125 162 273 18 43 48 100 66 127 l33 49 -165 0 c-143 0
-164 -2 -164 -16z"/>
<path d="M8976 12963 c-3 -21 -8 -74 -11 -118 -4 -44 -13 -104 -21 -133 -22
-80 -22 -131 0 -148 35 -25 53 -1 95 131 40 123 63 209 75 273 l6 32 -69 0
-69 0 -6 -37z"/>
<path d="M10466 12973 c-3 -16 -9 -75 -12 -133 -8 -119 5 -178 58 -284 123
-243 339 -418 566 -457 79 -14 233 -6 317 15 33 9 102 36 152 61 73 36 108 61
165 119 114 115 216 311 233 447 7 55 6 56 -30 88 -34 30 -41 32 -79 24 -86
-17 -200 -4 -210 24 -11 28 16 46 49 33 44 -17 55 -7 53 45 l-2 45 -627 0
-627 0 -6 -27z"/>
<path d="M11780 12968 c0 -52 11 -61 63 -53 38 6 51 4 73 -14 15 -12 31 -21
35 -21 5 0 9 27 9 60 l0 60 -90 0 -90 0 0 -32z"/>
<path d="M12530 12940 c25 -49 35 -60 55 -60 37 0 39 20 9 73 -23 42 -30 47
-60 47 l-34 0 30 -60z"/>
<path d="M5110 12565 c-38 -57 -70 -108 -70 -113 0 -18 29 -34 44 -25 25 14
149 212 142 228 -3 8 -14 15 -25 15 -15 0 -41 -30 -91 -105z"/>
<path d="M5239 12447 c-76 -123 -81 -134 -64 -151 11 -11 22 -13 32 -8 22 13
112 173 106 189 -11 28 -48 14 -74 -30z"/>
<path d="M7964 12475 c-9 -21 44 -107 63 -103 34 6 37 33 9 76 -27 43 -61 56
-72 27z"/>
<path d="M8183 12403 c-10 -26 48 -128 72 -128 30 0 30 36 0 94 -26 53 -59 68
-72 34z"/>
<path d="M9877 12363 c-2 -5 -8 -77 -11 -160 l-7 -153 24 0 c34 0 38 14 44
164 6 118 5 130 -12 142 -21 16 -32 17 -38 7z"/>
<path d="M12897 12304 c-112 -34 -230 -221 -292 -460 -46 -178 -34 -215 99
-314 50 -37 110 -77 133 -89 50 -25 110 -27 141 -5 22 15 22 18 21 267 -1 237
-2 248 -14 182 -19 -101 -51 -180 -86 -210 -36 -30 -36 -30 -75 -6 -21 12 -38
36 -49 65 -17 45 -17 46 10 133 38 121 89 221 120 233 33 13 71 -5 84 -39 7
-19 10 11 10 110 1 134 0 137 -21 143 -28 7 -23 8 -81 -10z"/>
<path d="M0 11884 c0 -387 1 -425 16 -413 57 47 112 262 129 504 8 106 -12
219 -47 272 -19 28 -71 63 -92 63 -3 0 -6 -192 -6 -426z"/>
<path d="M10057 12105 c-4 -8 -9 -48 -13 -89 -7 -80 2 -106 36 -106 25 0 30
19 30 121 0 87 0 89 -24 89 -13 0 -26 -7 -29 -15z"/>
<path d="M812 11908 c-18 -18 -15 -47 12 -105 45 -95 150 -189 182 -162 8 6
14 18 14 26 0 13 -65 58 -85 58 -5 0 -10 5 -10 12 0 7 -9 23 -20 35 -10 13
-19 25 -18 28 0 3 -2 11 -4 17 -3 7 -11 32 -18 55 -13 45 -32 57 -53 36z"/>
<path d="M12110 11909 c-111 -16 -135 -24 -138 -46 -4 -26 17 -34 60 -23 18 4
59 11 91 15 61 7 82 26 56 49 -10 9 -30 10 -69 5z"/>
<path d="M1046 11775 c-10 -26 3 -41 67 -79 111 -66 219 -85 225 -39 3 18 -4
24 -40 33 -80 21 -103 30 -161 65 -64 39 -82 43 -91 20z"/>
<path d="M11827 11743 c-4 -3 -7 -16 -7 -28 0 -18 14 -26 101 -55 85 -29 102
-32 110 -19 20 31 6 43 -94 78 -95 33 -100 34 -110 24z"/>
<path d="M8740 11713 c-14 -2 -95 -20 -180 -40 -133 -30 -171 -35 -265 -34
-355 6 -365 6 -455 -23 -47 -15 -108 -40 -135 -56 -45 -25 -58 -27 -120 -23
-84 5 -118 -9 -123 -51 -3 -20 4 -36 24 -57 31 -33 27 -56 -13 -61 -42 -5 -44
-43 -2 -77 27 -23 31 -32 25 -54 -8 -33 -23 -34 -84 -3 -65 32 -103 40 -126
23 -27 -20 -13 -51 39 -84 49 -31 55 -50 25 -78 -16 -15 -24 -16 -52 -5 -98
35 -198 30 -198 -11 0 -13 12 -21 42 -30 79 -21 118 -40 118 -59 0 -34 -27
-43 -129 -44 -81 -1 -103 -4 -119 -19 -33 -30 -17 -44 56 -51 84 -9 125 -24
117 -43 -3 -8 -8 -26 -11 -39 -3 -13 -9 -24 -13 -24 -70 -1 -215 -50 -225 -77
-12 -29 5 -36 78 -29 l71 6 255 253 255 252 -250 -252 c-196 -199 -245 -253
-227 -253 20 0 23 -4 20 -32 -3 -32 -4 -33 -61 -38 -53 -5 -61 -9 -108 -56
l-51 -51 89 1 88 1 -2 -39 c-2 -22 -7 -44 -12 -49 -5 -5 -42 -13 -82 -18 -114
-14 -197 -65 -162 -100 5 -5 43 -5 92 1 46 6 86 9 89 6 11 -11 -22 -66 -42
-70 -110 -21 -140 -31 -166 -53 -51 -42 -41 -57 35 -51 67 6 80 2 65 -21 -12
-21 -150 -23 -172 -4 -9 8 -25 13 -35 11 -16 -3 -18 -13 -16 -85 2 -67 0 -82
-13 -85 -11 -2 34 -52 127 -143 140 -137 242 -211 314 -229 60 -15 103 57 53
87 -134 81 -218 146 -218 168 0 18 25 8 173 -66 134 -67 155 -75 207 -75 64 0
104 22 121 68 16 41 -10 68 -78 82 -32 7 -78 21 -102 31 -47 21 -181 125 -181
141 0 18 41 68 56 68 9 0 41 -18 71 -40 63 -45 78 -48 92 -21 13 24 -31 97
-83 136 -39 30 -43 42 -22 70 13 18 16 17 65 -18 63 -45 91 -48 91 -9 0 37
-30 83 -79 123 -41 33 -52 66 -32 98 7 11 18 7 54 -18 55 -37 75 -39 83 -7 4
19 -3 36 -30 72 -20 26 -45 54 -56 61 -21 15 -28 63 -9 63 6 0 25 -11 41 -25
63 -53 90 -1 39 75 -17 25 -38 55 -47 68 -15 20 -15 22 0 22 9 0 22 -11 28
-25 12 -26 41 -41 59 -29 7 4 10 25 7 55 -5 46 -4 49 18 49 14 0 28 9 35 21
13 26 5 106 -17 157 -26 64 13 74 42 10 22 -48 43 -60 51 -29 3 12 7 21 10 21
2 0 26 -22 52 -49 30 -31 62 -53 87 -60 61 -17 170 -13 274 10 149 33 165 34
199 10 33 -24 50 -26 86 -9 22 10 31 9 56 -6 36 -21 62 -14 89 24 l21 30 29
-21 c38 -29 75 -19 102 26 15 27 26 35 49 35 37 0 66 29 75 75 5 30 10 36 26
31 35 -9 65 11 78 49 7 20 10 45 7 56 -3 10 -1 22 4 25 5 3 9 1 9 -4 0 -13 39
-52 53 -52 32 1 42 21 47 92 l5 73 19 -38 c24 -50 48 -62 70 -38 13 15 16 36
15 102 -1 76 1 88 25 123 45 66 32 119 -51 208 -62 65 -141 89 -243 71z m157
-93 c48 -29 57 -52 32 -84 -11 -14 -30 -26 -41 -26 -27 0 -108 66 -108 89 0
43 62 55 117 21z m-777 -185 c58 -14 122 -27 143 -30 42 -7 45 -15 17 -60 -31
-50 -110 -87 -195 -93 -121 -8 -178 24 -177 97 1 52 14 74 54 94 42 21 35 21
158 -8z m-732 -596 c4 -24 3 -24 -12 -4 -19 24 -20 38 -3 33 6 -3 13 -15 15
-29z"/>
<path d="M5000 11541 c-192 -78 -206 -85 -214 -107 -9 -23 -10 -21 43 -77 77
-82 89 -137 29 -137 -29 0 -33 3 -112 89 -21 23 -44 40 -50 38 -16 -5 -44 -58
-76 -140 -15 -40 -71 -178 -124 -307 -54 -129 -122 -296 -153 -370 -103 -249
-160 -359 -198 -382 -33 -19 -39 -31 -37 -68 1 -29 -19 -48 -59 -55 -38 -7
-44 -4 -80 31 -21 21 -39 42 -39 47 0 5 17 7 38 4 22 -2 53 1 70 9 32 13 47
38 100 174 12 30 40 101 62 158 46 118 51 180 20 241 -28 56 -77 69 -118 31
-31 -29 -28 -55 9 -70 24 -10 29 -18 27 -38 -2 -21 -13 -29 -60 -44 -74 -25
-80 -42 -72 -203 l7 -121 -53 -39 c-49 -36 -55 -38 -91 -28 -61 16 -85 7 -108
-42 -11 -23 -38 -57 -60 -75 -52 -40 -54 -74 -10 -124 22 -25 47 -40 87 -52
116 -33 127 -39 130 -63 3 -21 1 -23 -25 -17 -77 20 -99 18 -129 -7 -35 -31
-29 -47 34 -90 32 -22 46 -40 63 -86 24 -67 53 -93 137 -122 31 -11 65 -28 77
-38 31 -28 60 -33 99 -17 26 11 55 13 105 9 66 -5 71 -4 128 31 38 23 71 36
93 36 60 0 145 42 191 94 37 42 41 50 35 84 -4 20 -9 69 -12 107 -7 87 4 104
108 165 40 24 112 67 159 96 92 56 237 131 359 187 41 19 84 45 96 58 26 31
149 237 158 266 17 54 -40 83 -196 101 -97 10 -108 5 -85 -43 21 -44 22 -94 2
-101 -21 -9 -83 41 -102 82 -30 61 -47 51 -159 -86 -16 -19 -87 -103 -159
-186 -320 -372 -325 -379 -325 -435 0 -43 -15 -58 -37 -36 -10 9 -17 41 -19
87 -4 67 -2 75 23 109 31 41 231 280 408 487 414 485 408 474 386 654 -6 47
-15 138 -21 204 -21 228 -38 235 -300 127z m-1133 -1505 c-4 -9 -16 -16 -27
-16 -29 0 -38 30 -15 47 16 11 21 11 33 -1 8 -8 12 -22 9 -30z m157 -82 c11
-29 6 -43 -25 -79 -26 -29 -34 -33 -46 -23 -28 23 9 118 46 118 10 0 22 -7 25
-16z m400 -93 c-6 -55 -5 -60 19 -76 37 -24 59 -16 80 28 l19 37 29 -36 c37
-47 37 -67 -2 -95 -27 -19 -35 -20 -69 -10 -20 6 -47 11 -59 11 -26 0 -61 -53
-61 -91 0 -59 -61 -66 -70 -9 -4 20 -9 41 -13 48 -5 6 7 40 26 74 19 35 37 83
41 108 8 51 21 70 47 70 17 0 18 -6 13 -59z m-201 24 c20 -8 23 -38 5 -53 -26
-20 -96 32 -85 62 6 15 27 12 80 -9z m-153 -105 c0 -5 -4 -10 -10 -10 -5 0
-10 5 -10 10 0 6 5 10 10 10 6 0 10 -4 10 -10z m141 -60 c31 -17 24 -47 -15
-60 -69 -22 -116 18 -64 54 26 19 51 20 79 6z m-231 -30 c23 -23 26 -40 6 -40
-22 0 -60 35 -52 48 10 17 23 15 46 -8z"/>
<path d="M3655 11420 c-8 -13 15 -182 27 -197 6 -7 16 -13 24 -13 26 0 30 35
16 128 -13 86 -16 92 -38 92 -12 0 -26 -4 -29 -10z"/>
<path d="M3453 11374 c-7 -19 43 -74 68 -74 10 0 21 9 24 21 14 44 -75 96 -92
53z"/>
<path d="M9794 11341 c-23 -10 -51 -33 -63 -50 -21 -29 -48 -34 -38 -7 3 7 1
19 -3 26 -7 11 -15 12 -49 0 -22 -7 -42 -19 -45 -26 -3 -7 15 -102 39 -211 24
-109 51 -245 60 -303 l17 -105 166 -167 165 -167 61 -10 c34 -5 97 -13 141
-16 l80 -7 38 40 39 40 -118 1 c-299 3 -409 64 -273 151 116 75 212 226 232
364 26 181 -63 355 -220 432 -75 37 -169 43 -229 15z m198 -77 c179 -91 240
-327 131 -514 -32 -54 -145 -170 -166 -170 -18 0 -17 -9 -52 345 -14 143 -30
277 -35 299 -4 21 -6 45 -3 52 8 22 69 16 125 -12z"/>
<path d="M6081 11336 c-15 -18 11 -72 64 -133 39 -46 55 -52 75 -28 11 13 10
20 -9 43 -11 15 -38 51 -58 80 -37 54 -52 62 -72 38z"/>
<path d="M6426 11305 c-10 -28 5 -42 65 -60 64 -20 84 -14 77 21 -2 13 -21 25
-53 36 -64 21 -81 22 -89 3z"/>
<path d="M2447 11210 c-43 -38 -126 -203 -171 -340 l-34 -105 51 -52 51 -52
12 32 c6 17 32 76 58 130 137 286 155 494 33 387z"/>
<path d="M10631 11169 c-29 -11 -44 -29 -75 -89 -69 -133 -58 -334 25 -469
l20 -34 63 62 63 63 -27 86 c-16 48 -31 116 -34 152 -8 82 6 114 52 118 59 6
128 -86 157 -210 28 -118 10 -215 -47 -263 -37 -31 -48 -24 -73 43 -10 26 -21
50 -24 54 -4 4 -33 -18 -65 -51 l-57 -58 28 -29 c15 -16 43 -51 60 -77 26 -37
38 -47 61 -47 36 0 75 27 67 48 -3 10 13 32 49 66 43 40 58 63 70 105 19 64
21 168 4 223 l-11 39 -31 -28 -31 -28 29 32 c35 39 32 55 -23 140 -36 57 -100
113 -127 113 -7 0 -19 11 -28 25 -18 27 -51 32 -95 14z"/>
<path d="M11253 11073 c-68 -49 -108 -125 -130 -248 -9 -50 -22 -97 -29 -106
-16 -18 -18 -45 -4 -54 6 -3 10 -24 10 -45 0 -62 20 -136 41 -156 10 -9 19
-29 19 -43 0 -26 24 -71 39 -71 4 0 16 6 27 14 16 12 20 31 24 134 3 66 8 123
11 127 8 7 160 -22 171 -33 4 -4 8 -43 10 -86 2 -61 7 -81 20 -89 12 -8 21 -7
34 4 15 12 16 29 10 174 -12 295 -35 378 -125 462 -31 29 -61 53 -66 53 -6 0
-34 -17 -62 -37z m144 -167 c27 -81 41 -220 24 -230 -7 -4 -22 -1 -34 7 -12 8
-41 18 -64 22 -60 10 -66 21 -53 96 14 87 36 167 51 185 21 26 52 -6 76 -80z"/>
<path d="M11748 11070 c-78 -14 -112 -62 -66 -92 l22 -15 -13 -239 c-7 -131
-17 -257 -23 -279 -9 -35 -8 -41 12 -57 26 -21 49 -14 55 18 16 78 19 78 25 1
3 -54 10 -81 20 -87 21 -14 28 -12 50 10 14 14 20 33 20 68 0 51 13 83 28 67
5 -6 30 -37 55 -70 57 -75 248 -275 262 -275 6 0 16 4 24 9 27 17 0 62 -110
177 -137 145 -229 266 -229 303 0 23 9 31 60 56 65 31 113 75 129 118 27 71 1
170 -57 219 -60 50 -186 83 -264 68z m239 -149 c36 -53 31 -102 -15 -151 -22
-22 -47 -40 -57 -40 -16 0 -17 8 -10 92 4 50 11 102 16 115 12 33 38 26 66
-16z"/>
<path d="M1757 11043 c-16 -15 -4 -55 32 -110 56 -83 187 -220 276 -288 72
-55 90 -84 64 -101 -20 -12 -154 -226 -193 -309 -49 -102 -96 -229 -96 -259 0
-35 22 -49 53 -35 32 15 122 149 288 432 19 31 38 56 44 54 5 -2 44 -78 85
-169 79 -173 172 -353 196 -378 12 -12 19 -10 51 20 l38 35 -39 -42 -38 -41
25 -17 c33 -22 61 -16 65 13 9 60 -101 312 -237 546 -80 137 -83 131 88 133
152 2 398 27 443 44 54 21 44 60 -21 79 -50 15 -315 24 -435 15 l-98 -7 63
-67 c35 -36 11 -15 -53 48 -99 97 -118 112 -123 95 -24 -75 -15 -78 -148 53
-141 139 -195 188 -256 232 -44 31 -62 37 -74 24z"/>
<path d="M7613 10794 c-3 -8 -3 -48 -1 -87 6 -100 57 -198 148 -287 107 -105
211 -144 351 -133 79 7 164 -7 291 -46 120 -37 203 -46 303 -32 88 13 178 55
183 87 3 21 -50 125 -74 144 -12 11 -20 9 -45 -9 l-31 -23 -28 27 c-25 24 -35
27 -71 22 -33 -4 -48 -1 -70 15 -25 19 -31 20 -60 8 -29 -13 -34 -12 -43 5
-22 39 -56 65 -83 65 -23 0 -31 7 -45 40 -17 40 -21 44 -68 54 -17 3 -32 18
-42 40 -16 33 -63 56 -87 42 -5 -3 -29 10 -53 30 l-43 37 -115 -8 c-146 -9
-193 -7 -244 10 -53 19 -65 19 -73 -1z"/>
<path d="M848 10773 c-20 -2 -41 -9 -46 -16 -11 -14 -77 -144 -115 -227 -112
-243 -125 -288 -98 -338 11 -20 51 -32 51 -14 0 4 11 19 24 33 30 32 46 63 46
86 0 33 205 357 254 402 14 14 26 31 26 38 0 16 -60 44 -87 41 -10 -1 -35 -3
-55 -5z"/>
<path d="M12249 10759 c-21 -21 -22 -27 -15 -138 3 -64 12 -153 19 -197 11
-68 18 -87 42 -112 17 -16 36 -37 43 -46 16 -20 23 -20 48 -2 17 13 19 25 16
143 -2 114 0 132 18 161 28 45 46 49 79 18 32 -31 85 -36 95 -9 5 13 -6 29
-41 60 -69 62 -93 65 -156 21 -21 -16 -37 2 -37 42 0 18 -11 32 -38 50 -51 34
-48 34 -73 9z"/>
<path d="M12730 10678 c0 -2 -17 -102 -38 -223 -21 -121 -36 -228 -34 -237 3
-13 14 -16 60 -14 31 1 62 5 68 9 7 4 15 42 19 84 8 88 14 104 58 151 25 26
37 31 58 27 36 -8 53 15 45 59 -8 40 -28 50 -81 40 l-37 -7 7 57 c7 54 7 56
-17 56 -13 0 -30 -6 -37 -12 -11 -10 -14 -10 -18 0 -4 10 -52 19 -53 10z"/>
<path d="M9724 10608 c3 -18 15 -103 26 -188 14 -104 28 -168 41 -195 15 -29
19 -49 15 -77 -9 -53 2 -88 26 -88 12 0 23 11 30 31 10 28 14 30 51 27 l41 -3
10 45 c5 25 9 78 8 119 l-3 73 28 -6 c22 -6 -5 26 -122 143 -82 83 -151 151
-153 151 -3 0 -2 -15 2 -32z"/>
<path d="M147 10603 c-23 -47 -65 -163 -92 -260 -25 -87 -26 -133 -4 -133 5 0
9 -15 9 -34 0 -37 19 -60 47 -54 20 4 53 78 78 174 8 32 22 65 29 73 13 12 19
10 51 -17 39 -34 61 -39 89 -19 21 16 14 37 -22 60 -62 40 -91 63 -92 71 0 5
9 29 21 53 24 49 15 73 -27 73 -13 0 -28 9 -34 20 -15 28 -37 25 -53 -7z"/>
<path d="M6932 10571 c-62 -21 -87 -43 -79 -65 12 -31 51 -17 102 34 27 28 45
50 40 50 -6 -1 -34 -9 -63 -19z"/>
<path d="M10376 10341 l-40 -41 100 7 c113 7 137 15 132 46 -3 20 -10 22 -78
25 l-75 3 -39 -40z"/>
<path d="M1286 10160 c-31 -66 -31 -94 -1 -98 16 -2 27 10 48 53 34 71 36 105
4 105 -19 0 -29 -12 -51 -60z"/>
<path d="M554 10075 c-33 -50 10 -92 52 -50 28 28 30 38 8 59 -22 23 -41 20
-60 -9z"/>
<path d="M7957 10056 c-57 -16 -78 -32 -54 -42 20 -7 154 27 159 41 5 15 -51
16 -105 1z"/>
<path d="M6560 10042 c0 -4 20 -27 44 -51 l45 -44 -9 37 c-4 20 -14 43 -20 51
-13 16 -60 21 -60 7z"/>
<path d="M6529 10013 c-13 -15 -16 -81 -7 -153 5 -44 -13 -36 -32 14 -11 26
-27 57 -36 67 -18 20 -69 26 -79 9 -4 -6 -10 -8 -14 -5 -5 2 -20 -6 -34 -19
-24 -22 -26 -30 -23 -88 2 -35 11 -80 22 -101 18 -38 18 -39 -1 -53 -31 -23
-44 -16 -55 29 -6 23 -19 52 -28 65 l-17 22 -69 -69 -69 -70 17 -65 c17 -62
16 -86 -4 -86 -5 0 -19 19 -31 43 -12 23 -28 50 -37 60 -36 41 -102 3 -102
-61 l0 -36 53 49 52 50 -52 -55 c-40 -42 -50 -59 -43 -70 19 -30 11 -48 -27
-61 -72 -23 -119 -59 -260 -201 -113 -114 -147 -155 -167 -200 -14 -32 -28
-58 -30 -58 -3 0 -39 14 -80 30 -81 33 -175 41 -228 21 -32 -12 -62 -64 -54
-95 12 -48 45 -74 146 -113 104 -39 114 -50 86 -88 -14 -19 -15 -19 -68 4 -94
41 -176 55 -241 41 -64 -13 -89 -39 -93 -94 -4 -50 17 -70 97 -96 40 -12 88
-29 106 -36 33 -14 33 -15 17 -40 -31 -46 -48 -48 -101 -10 -92 65 -153 91
-221 93 -56 2 -67 -1 -88 -22 -29 -29 -31 -73 -5 -106 11 -13 58 -44 105 -69
95 -48 105 -67 54 -98 -25 -15 -27 -15 -61 15 -51 45 -139 83 -207 90 -54 5
-61 3 -84 -20 -33 -33 -35 -86 -6 -112 12 -11 49 -33 83 -51 67 -34 75 -48 40
-71 -20 -13 -23 -13 -39 6 -10 11 -21 18 -26 15 -5 -3 -7 0 -6 8 2 7 -3 12
-10 10 -8 -1 -11 1 -8 6 14 23 -150 112 -207 112 -70 0 -111 -72 -72 -127 8
-12 44 -42 80 -68 54 -38 64 -49 54 -61 -21 -26 -46 -15 -90 40 -82 101 -179
148 -249 120 -48 -19 -62 -49 -45 -91 7 -17 20 -35 28 -39 32 -19 87 -75 82
-84 -4 -6 -21 -10 -39 -10 -31 0 -36 5 -65 64 -45 91 -114 130 -165 93 -21
-15 -19 -43 7 -112 15 -38 14 -40 -5 -43 -37 -6 -48 5 -48 50 0 90 -33 149
-92 163 -19 5 -32 1 -48 -15 -18 -18 -20 -28 -15 -74 8 -61 -2 -75 -35 -48
-19 15 -20 21 -10 47 16 41 16 125 2 152 -15 28 -57 40 -77 23 -9 -7 -20 -32
-26 -56 -7 -26 -17 -44 -26 -44 -24 0 -26 29 -4 80 25 58 27 117 5 148 -23 33
-51 28 -68 -13 -8 -19 -20 -35 -25 -35 -21 0 -10 52 18 88 39 51 53 96 39 127
-14 32 -41 32 -66 0 -23 -29 -32 -23 -32 21 0 44 -9 64 -29 64 -24 0 -53 -64
-60 -135 l-6 -60 -57 3 c-32 1 -58 -1 -58 -6 0 -21 35 -53 71 -64 46 -13 53
-25 64 -112 8 -66 1 -76 -52 -76 -17 0 -34 -4 -38 -9 -9 -15 45 -51 76 -51 45
0 59 -10 84 -61 29 -56 25 -61 -50 -69 -61 -6 -65 -24 -15 -58 32 -22 43 -24
113 -19 75 5 79 4 127 -28 27 -18 55 -35 62 -38 20 -6 -19 -45 -69 -69 -49
-23 -55 -43 -18 -60 35 -16 109 2 173 41 l49 31 69 -15 c38 -8 72 -15 77 -15
22 0 0 -43 -44 -85 -41 -38 -50 -52 -42 -64 33 -53 175 10 233 105 l22 34 99
0 99 0 0 -30 c0 -16 -9 -53 -20 -82 -23 -61 -25 -94 -7 -101 20 -7 69 17 99
49 31 34 78 124 78 150 0 33 14 43 88 66 57 17 75 19 85 9 7 -7 13 -48 13
-109 3 -139 1 -132 27 -132 56 0 99 87 106 219 l6 95 55 32 c30 18 63 33 72
34 21 0 48 -82 48 -146 0 -90 37 -121 79 -68 41 52 50 154 25 280 -5 28 -1 34
37 63 24 17 48 30 54 28 19 -6 37 -59 50 -141 15 -98 22 -116 44 -116 29 0 60
42 72 99 12 57 8 109 -18 214 l-17 67 64 65 c36 36 68 65 72 65 16 0 78 -129
93 -194 8 -38 20 -76 26 -83 18 -21 46 -15 68 13 47 60 36 209 -23 330 -20 39
-36 78 -36 85 1 19 46 69 62 69 23 0 72 -91 108 -200 29 -86 39 -106 56 -108
28 -4 61 37 70 86 9 47 -11 172 -36 230 -11 25 -18 47 -15 50 8 8 166 -40 258
-79 124 -53 215 -118 305 -216 42 -46 89 -91 104 -99 65 -34 151 -6 182 60 38
81 -1 130 -227 280 -156 104 -344 255 -371 298 -17 28 1 32 51 10 29 -12 112
-29 208 -42 169 -22 265 -49 340 -96 113 -70 136 -76 201 -49 23 10 39 26 49
49 27 64 15 107 -39 143 -32 21 -67 32 -271 88 -109 30 -205 66 -317 119 -40
19 -90 42 -112 50 -37 15 -38 17 -24 38 29 44 41 44 105 -2 42 -29 74 -44 105
-47 83 -10 77 39 -12 110 -59 48 -71 69 -48 83 7 5 28 -10 52 -37 100 -110
248 -217 345 -249 171 -56 238 25 91 111 -128 75 -141 84 -198 138 -63 61
-132 148 -132 167 0 12 42 44 59 44 5 0 30 -26 54 -57 61 -80 130 -145 207
-194 161 -104 350 -143 350 -72 0 34 -42 73 -102 94 -117 43 -244 144 -310
248 -21 34 -25 48 -17 58 6 7 15 13 20 13 5 0 49 -40 97 -89 110 -112 197
-160 307 -168 90 -7 125 1 125 27 0 10 -5 22 -10 25 -6 4 -8 10 -5 15 3 4 -2
13 -10 20 -8 7 -15 9 -15 5 0 -5 -8 -1 -17 7 -10 8 -45 28 -78 44 -32 16 -90
58 -127 94 -67 64 -85 100 -51 100 11 0 -45 63 -142 160 -88 88 -163 160 -166
160 -4 0 -13 -7 -20 -17z m-169 -76 c0 -2 -12 -14 -27 -28 l-28 -24 24 28 c23
25 31 32 31 24z"/>
<path d="M7798 10003 c-15 -17 -68 -142 -68 -160 0 -11 -58 -122 -83 -157 -19
-28 -20 -29 -2 -59 12 -20 18 -47 16 -74 -1 -31 2 -43 12 -43 25 0 47 35 97
160 48 119 68 154 124 213 34 36 33 50 -6 97 -36 43 -66 50 -90 23z"/>
<path d="M7951 9977 c-22 -27 -2 -37 74 -37 80 0 100 10 58 29 -47 21 -117 25
-132 8z"/>
<path d="M7190 9940 c87 -68 280 -113 280 -64 0 15 -7 17 -121 38 -42 8 -93
22 -114 30 -54 23 -77 21 -45 -4z"/>
<path d="M7950 9885 c0 -9 8 -19 18 -22 9 -4 28 -15 41 -25 13 -10 28 -18 32
-18 18 0 8 32 -17 55 -30 28 -74 34 -74 10z"/>
<path d="M6142 9775 c-26 -22 -50 -71 -39 -81 2 -2 28 21 57 51 45 46 51 55
33 55 -12 0 -35 -11 -51 -25z"/>
<path d="M7514 9743 c13 -113 28 -165 52 -190 20 -20 28 -22 39 -13 8 7 15 20
15 28 0 25 -92 232 -103 232 -6 0 -7 -22 -3 -57z"/>
<path d="M5430 9760 c-30 -43 -40 -144 -15 -154 25 -9 45 12 45 48 0 18 9 49
20 71 15 29 17 42 9 52 -18 21 -36 15 -59 -17z"/>
<path d="M8877 9703 c-64 -101 -73 -143 -33 -143 20 0 32 14 66 77 22 42 39
82 36 90 -10 26 -45 14 -69 -24z"/>
<path d="M7448 9683 c-21 -20 -39 -27 -82 -31 -91 -7 -92 -28 -8 -134 23 -29
54 -92 81 -163 51 -134 73 -159 116 -131 14 9 27 26 29 39 29 141 28 160 -23
247 -24 43 -48 101 -55 134 -7 33 -17 61 -22 63 -5 2 -21 -9 -36 -24z"/>
<path d="M10988 9626 c-70 -85 -95 -132 -82 -154 19 -29 32 -24 60 20 14 24
49 69 76 101 52 60 58 90 21 95 -16 2 -35 -13 -75 -62z"/>
<path d="M8134 9671 c-50 -12 -94 -35 -94 -48 0 -16 54 -17 83 -1 12 6 42 16
66 23 58 14 66 35 14 34 -21 -1 -52 -4 -69 -8z"/>
<path d="M9532 9605 c-53 -23 -147 -120 -173 -178 -27 -62 -29 -143 -4 -201
14 -32 15 -49 5 -109 -12 -82 -20 -93 -63 -103 -116 -25 -223 -135 -321 -332
-20 -39 -52 -97 -72 -128 -20 -31 -37 -64 -39 -73 -1 -9 -4 -14 -7 -11 -2 3
-38 -26 -79 -63 -40 -38 -90 -77 -111 -88 -21 -11 -53 -35 -73 -54 -43 -43
-46 -81 -10 -115 21 -20 31 -22 79 -17 61 6 179 59 291 132 108 69 169 84 385
95 233 11 274 23 351 101 32 33 45 39 79 39 52 0 95 -22 112 -57 22 -46 57
-56 212 -57 158 -1 186 7 186 52 -1 35 -22 61 -95 114 -129 93 -159 102 -229
68 -36 -17 -55 -20 -93 -15 -75 10 -113 25 -113 43 -1 15 -25 91 -44 133 -8
18 9 38 73 87 24 19 47 27 82 29 31 1 60 9 78 23 44 31 160 160 179 199 16 33
16 33 -11 57 -16 13 -36 24 -47 24 -42 0 -221 -49 -254 -69 -35 -22 -40 -32
-60 -121 -3 -17 -23 -36 -60 -57 -62 -38 -86 -41 -110 -14 -10 11 -33 27 -53
36 -19 9 -37 24 -40 32 -12 32 16 163 43 198 14 19 34 60 44 92 23 73 55 262
46 270 -4 4 -68 -54 -144 -127 l-137 -135 140 143 c133 136 139 144 121 158
-24 17 -23 17 -64 -1z"/>
<path d="M8130 9582 c-41 -14 -31 -52 15 -52 62 0 155 13 155 22 0 20 -132 43
-170 30z"/>
<path d="M7971 9559 c-19 -11 -66 -47 -105 -80 -39 -33 -108 -78 -153 -100
l-83 -39 0 -46 c0 -31 -7 -54 -20 -71 -11 -14 -20 -34 -20 -45 0 -46 51 -29
154 51 113 88 183 130 251 152 92 29 106 44 93 100 -22 98 -52 118 -117 78z"/>
<path d="M709 9516 c-48 -24 -95 -83 -165 -206 -108 -192 -190 -296 -272 -349
-50 -31 -149 -65 -225 -76 l-47 -7 0 -722 0 -721 118 0 c109 0 121 -2 153 -24
20 -13 52 -50 73 -83 66 -101 157 -158 255 -158 89 0 144 35 305 196 157 157
178 172 323 233 177 74 237 120 288 222 44 87 105 263 105 303 0 59 -41 73
-100 33 -19 -13 -62 -34 -95 -46 -33 -12 -80 -34 -105 -48 -54 -31 -161 -133
-153 -147 3 -5 1 -6 -4 -3 -13 8 -36 -17 -25 -28 4 -5 2 -5 -5 -1 -7 4 -19 -6
-29 -24 -10 -16 -31 -34 -47 -40 -40 -14 -264 -13 -272 1 -11 16 1 22 67 31
71 9 168 53 213 96 100 94 176 159 218 184 26 17 44 34 40 40 -3 7 -1 8 5 4 6
-4 40 8 74 27 35 19 111 50 169 70 124 43 191 47 276 17 73 -26 99 -25 114 1
18 35 5 115 -42 249 -50 146 -85 190 -206 267 -80 51 -79 47 -62 153 17 113
-20 243 -78 269 -84 38 -167 -34 -282 -249 -9 -17 -122 -18 -408 -5 -122 6
-153 10 -153 21 0 8 18 67 39 132 63 189 75 318 37 378 -21 31 -49 34 -97 10z
m819 -954 c14 -9 22 -22 22 -40 0 -47 -21 -65 -83 -70 -70 -6 -103 2 -117 28
-14 27 12 78 45 86 14 3 23 9 20 13 -6 11 87 -4 113 -17z m-930 -94 c87 -21
163 -86 177 -149 11 -49 -9 -60 -132 -75 -66 -7 -128 -21 -158 -34 -31 -14
-78 -24 -125 -27 -67 -4 -79 -2 -110 19 -45 30 -74 87 -65 128 22 100 255 178
413 138z"/>
<path d="M8132 9478 c-7 -7 -12 -17 -12 -23 0 -11 120 -68 128 -61 11 11 -13
49 -46 71 -41 28 -53 30 -70 13z"/>
<path d="M12495 9423 c-11 -2 -30 -6 -42 -9 -26 -5 -30 -26 -9 -43 18 -15 208
-1 213 15 9 26 -28 44 -85 43 -31 -1 -66 -3 -77 -6z"/>
<path d="M5711 9315 c-74 -64 -195 -195 -179 -195 2 0 57 54 123 120 66 66
117 120 114 120 -3 0 -29 -20 -58 -45z"/>
<path d="M2642 9208 c-28 -28 -8 -49 147 -157 105 -74 134 -83 139 -44 3 21
-1 24 -172 143 -12 8 -38 27 -57 43 -41 31 -41 31 -57 15z"/>
<path d="M3307 9213 c-4 -3 -7 -17 -7 -30 0 -23 3 -24 52 -21 42 2 54 7 56 22
2 10 -2 22 -10 27 -16 10 -82 12 -91 2z"/>
<path d="M11103 9202 c-22 -14 -59 -191 -65 -307 -3 -56 -1 -60 19 -63 29 -4
38 18 47 115 4 39 16 108 27 153 10 45 19 83 19 85 0 10 -37 23 -47 17z"/>
<path d="M11675 9081 c-87 -38 -87 -176 1 -440 52 -154 77 -217 145 -356 57
-117 93 -178 103 -175 4 1 11 -2 14 -6 4 -4 1 -4 -7 1 -9 5 -12 3 -9 -6 3 -8
10 -13 16 -12 6 2 9 -3 6 -11 -3 -8 0 -17 5 -21 6 -3 17 -21 25 -38 24 -55
143 -208 236 -303 103 -105 205 -179 324 -235 126 -59 191 -72 321 -67 60 3
118 9 128 13 16 7 17 51 17 731 l0 724 -27 -7 c-16 -5 -82 -8 -148 -8 -148 1
-273 27 -470 97 -167 60 -201 71 -325 98 -102 23 -321 36 -355 21z"/>
<path d="M7870 8780 c-89 -62 -101 -78 -76 -99 13 -11 24 -8 62 14 98 58 134
88 131 115 -1 14 -9 26 -17 27 -8 1 -53 -25 -100 -57z"/>
<path d="M8043 8690 c-63 -39 -71 -52 -53 -80 8 -13 16 -12 55 10 77 42 102
66 89 86 -17 28 -25 26 -91 -16z"/>
<path d="M6835 8680 c-21 -14 -47 -20 -87 -20 -89 0 -90 1 15 -270 51 -133 61
-175 82 -360 18 -161 39 -236 72 -257 22 -15 25 -14 47 6 13 12 36 25 52 30
51 13 52 44 11 178 -60 191 -77 283 -87 477 -6 102 -15 190 -23 205 -16 33
-44 37 -82 11z"/>
<path d="M2445 8568 c-6 -19 -7 -38 -6 -96 1 -59 23 -80 47 -47 17 23 18 127
2 143 -16 16 -37 15 -43 0z"/>
<path d="M2470 8256 c-34 -61 -36 -91 -5 -91 24 0 87 91 83 120 -2 12 -12 21
-24 23 -17 2 -29 -9 -54 -52z"/>
<path d="M6324 8214 c-16 -23 -16 -40 -4 -199 16 -205 10 -293 -30 -488 -36
-177 -40 -275 -10 -302 19 -18 22 -18 56 -2 19 10 40 15 45 11 6 -3 21 -3 35
0 42 11 54 58 54 208 0 196 15 328 55 474 20 71 41 160 48 197 17 100 5 111
-95 92 -29 -6 -47 -3 -78 14 -52 27 -56 26 -76 -5z"/>
<path d="M7748 7944 c-81 -73 -151 -118 -216 -139 -62 -21 -59 -35 8 -35 74 0
148 33 230 101 53 45 83 63 111 66 46 7 53 33 14 51 -52 24 -81 15 -147 -44z"/>
<path d="M7623 7933 c-22 -16 -66 -45 -98 -66 -40 -27 -54 -42 -46 -50 16 -16
89 16 170 75 39 28 71 55 71 60 0 18 -58 6 -97 -19z"/>
<path d="M10167 7953 c-4 -3 -7 -15 -7 -25 0 -12 19 -26 63 -46 34 -16 81 -40
104 -55 49 -31 76 -27 71 11 -2 21 -19 34 -98 74 -93 47 -120 55 -133 41z"/>
<path d="M7789 7836 c-84 -63 -147 -90 -219 -90 -36 0 -86 3 -111 8 -45 8 -46
8 -59 -24 -13 -30 -12 -34 8 -50 47 -38 222 -32 324 12 45 19 108 77 108 99 0
5 16 17 35 25 40 16 40 17 19 38 -24 25 -57 19 -105 -18z"/>
<path d="M7129 7848 c-9 -7 -23 -25 -32 -40 -10 -16 -24 -28 -31 -28 -7 0 -25
-10 -40 -21 -21 -16 -26 -29 -24 -52 3 -31 3 -31 170 -86 38 -13 55 8 38 48
-6 17 -9 35 -5 40 3 6 39 11 80 11 64 0 76 3 85 20 19 36 -3 55 -104 89 -106
35 -116 36 -137 19z"/>
<path d="M10514 7655 c-9 -22 3 -44 30 -56 51 -24 76 16 34 52 -28 22 -57 24
-64 4z"/>
<path d="M11430 7532 c-32 -15 -133 -124 -217 -233 -67 -86 -131 -218 -160
-326 -24 -88 -26 -115 -26 -273 1 -122 7 -212 20 -297 24 -148 25 -145 -86
-279 -80 -96 -91 -117 -71 -129 19 -12 57 22 142 126 46 56 142 173 213 260
183 224 215 270 273 400 54 121 67 188 67 364 0 179 -19 292 -60 356 -28 44
-52 52 -95 31z m1 -368 c7 -19 5 -52 -6 -117 -8 -49 -13 -92 -10 -95 2 -3 23
7 46 22 42 28 69 29 69 1 0 -22 -32 -51 -87 -79 -48 -24 -48 -24 -85 -133 -37
-109 -134 -336 -163 -380 -9 -13 -22 -23 -30 -23 -28 0 -16 60 35 167 28 58
50 113 50 122 0 9 -22 41 -50 71 -49 54 -60 88 -32 98 7 2 33 -17 58 -42 24
-25 48 -46 53 -46 17 0 62 172 85 329 19 127 43 166 67 105z"/>
<path d="M9460 7514 c-160 -32 -269 -79 -387 -165 -129 -95 -273 -255 -273
-304 0 -43 19 -49 250 -80 184 -24 167 -29 280 83 116 116 173 150 263 159
122 11 237 -44 305 -146 66 -99 80 -237 32 -319 l-21 -35 98 -101 98 -101
-100 98 -101 97 -28 -29 c-35 -37 -129 -87 -178 -96 -143 -27 -246 115 -194
263 20 57 53 99 90 113 17 7 33 14 35 16 3 2 -29 38 -70 81 l-74 77 80 -77
c59 -56 91 -79 122 -87 48 -13 88 -55 98 -103 4 -18 26 -53 49 -78 l41 -45
-42 39 -42 39 -23 -26 c-33 -37 -95 -40 -128 -7 -32 32 -27 83 13 114 l32 26
-31 0 c-64 0 -114 -70 -114 -160 0 -90 43 -140 123 -140 81 0 202 81 233 156
8 18 14 60 14 92 0 168 -123 292 -288 292 -74 -1 -123 -23 -197 -93 -133 -123
-192 -300 -151 -452 36 -134 116 -215 258 -260 275 -87 604 81 688 351 75 243
-57 593 -274 723 -110 66 -176 83 -326 87 -74 1 -146 0 -160 -2z m-135 -224
c71 -71 127 -130 125 -130 -3 0 -64 59 -135 130 -71 72 -127 130 -125 130 3 0
64 -58 135 -130z"/>
<path d="M1768 7493 c-41 -48 -119 -176 -114 -189 3 -8 16 -14 28 -14 18 0 36
19 76 79 55 82 70 133 41 138 -8 2 -22 -4 -31 -14z m33 -10 c13 -16 12 -17 -3
-4 -10 7 -18 15 -18 17 0 8 8 3 21 -13z"/>
<path d="M5510 7495 c-15 -18 -6 -45 14 -45 8 0 23 -3 33 -7 13 -4 10 3 -12
28 l-30 34 40 -36 c22 -20 55 -44 72 -53 18 -9 48 -30 67 -46 37 -33 67 -32
65 4 -1 29 -67 83 -136 112 -67 27 -96 30 -113 9z"/>
<path d="M2333 7400 c-34 -14 -52 -60 -59 -156 -3 -49 -13 -102 -21 -118 -30
-57 -315 -330 -458 -436 -186 -140 -422 -296 -526 -348 -78 -40 -92 -44 -194
-51 -151 -11 -209 -44 -209 -118 0 -30 7 -42 44 -73 42 -36 43 -38 37 -84 -8
-58 14 -132 49 -163 52 -48 123 -21 182 67 52 78 166 189 242 234 127 77 356
219 415 259 177 120 343 271 462 422 l63 80 -77 80 -78 80 77 -75 c46 -44 81
-70 86 -65 4 6 20 26 34 46 18 24 40 39 69 48 52 16 112 53 133 83 43 61 -5
148 -82 148 -38 0 -41 2 -53 38 -14 44 -42 82 -72 99 -26 14 -34 15 -64 3z"/>
<path d="M5241 7381 c-19 -34 7 -42 125 -39 109 3 109 3 109 28 l0 25 -112 3
c-102 2 -113 1 -122 -17z"/>
<path d="M7195 7180 c-97 -98 -91 -104 29 -31 51 32 76 41 111 41 24 0 46 4
50 9 9 16 -38 61 -70 67 -27 5 -38 -3 -120 -86z"/>
<path d="M7090 7250 c-14 -4 -50 -21 -80 -37 -30 -16 -74 -37 -98 -46 -47 -19
-48 -37 -2 -37 43 0 150 37 203 70 43 28 60 50 38 50 -5 0 -15 2 -23 4 -7 2
-24 1 -38 -4z"/>
<path d="M7185 7218 c-74 -51 -177 -96 -242 -104 -67 -9 -82 -18 -53 -34 14
-8 53 -11 106 -8 l84 3 92 93 c51 50 88 92 83 92 -6 0 -37 -19 -70 -42z"/>
<path d="M6485 7210 c-15 -16 -44 -35 -64 -41 -60 -19 -81 -37 -81 -69 0 -26
7 -33 52 -56 29 -15 69 -37 89 -51 21 -14 48 -23 61 -21 21 3 23 7 20 51 -3
46 -2 47 27 47 16 0 53 -5 81 -12 47 -11 52 -10 72 9 38 38 20 62 -92 121 -55
28 -108 52 -118 52 -10 0 -31 -13 -47 -30z"/>
<path d="M12231 7217 c-8 -10 -8 -43 0 -123 12 -134 12 -134 44 -134 29 0 30
10 15 159 -11 103 -29 133 -59 98z"/>
<path d="M3325 7193 c-38 -8 -113 -22 -165 -31 -90 -16 -95 -18 -95 -42 0 -23
3 -25 45 -24 51 1 330 52 349 64 8 4 11 16 6 29 -8 25 -35 26 -140 4z"/>
<path d="M8045 7117 c-22 -45 -37 -89 -38 -117 -2 -41 0 -45 22 -45 19 0 26 9
41 55 9 30 27 76 40 101 25 51 22 79 -9 79 -15 0 -29 -19 -56 -73z"/>
<path d="M7209 7096 c-35 -19 -87 -42 -115 -51 -34 -11 -66 -32 -95 -61 l-43
-44 70 0 c101 0 168 23 223 76 25 24 53 44 62 44 29 0 41 25 21 42 -34 30 -56
29 -123 -6z"/>
<path d="M6780 7060 c-12 -17 -19 -37 -16 -45 7 -19 69 -49 130 -64 l50 -12
44 44 44 44 -53 7 c-29 4 -78 18 -110 32 -32 13 -60 24 -63 24 -3 0 -14 -14
-26 -30z"/>
<path d="M3267 6893 c-35 -26 -47 -41 -45 -57 2 -14 10 -21 24 -21 25 0 104
60 104 78 0 6 -21 -9 -47 -33 l-48 -45 48 51 c40 42 46 52 32 58 -21 8 -12 11
-68 -31z"/>
<path d="M8155 6896 c-19 -29 -14 -53 11 -63 22 -8 46 24 42 57 -4 34 -33 37
-53 6z"/>
<path d="M4372 6847 c-8 -9 -4 -33 15 -86 33 -97 28 -102 -84 -68 -48 15 -101
27 -118 27 -39 0 -126 -41 -187 -88 -70 -53 -66 -76 27 -189 53 -63 85 -91
159 -134 76 -44 81 -68 17 -84 -25 -6 -46 -16 -48 -22 -8 -23 29 -71 155 -202
91 -93 135 -132 148 -129 10 2 53 44 96 93 63 73 82 90 105 90 48 0 39 -29
-37 -117 -47 -54 -70 -89 -68 -102 6 -41 245 -146 301 -132 14 3 61 39 104 79
97 91 119 106 144 100 42 -11 14 -56 -101 -158 l-45 -40 36 -3 c115 -10 381
116 493 233 l51 52 95 7 c266 17 436 78 400 145 -14 27 -45 27 -112 0 -114
-45 -173 -59 -255 -59 -55 0 -84 4 -90 13 -4 6 -8 67 -9 134 -4 202 -52 328
-163 423 -53 46 -188 116 -242 125 l-37 7 29 -97 c28 -94 69 -306 69 -357 0
-49 -61 -73 -75 -29 -3 9 -9 52 -15 96 -15 124 -81 375 -104 402 -18 21 -41
27 -186 48 -91 14 -171 23 -177 20 -18 -6 -16 -30 6 -73 28 -54 111 -305 111
-335 0 -13 -7 -30 -16 -37 -25 -21 -51 15 -74 104 -29 109 -110 307 -137 333
-19 20 -33 23 -96 23 -48 0 -78 -5 -85 -13z m-211 -325 c247 -162 414 -241
712 -337 241 -78 453 -122 521 -109 59 11 102 -31 57 -56 -35 -18 -178 -11
-305 15 -140 28 -445 126 -585 187 -128 57 -268 133 -423 230 -119 75 -148
103 -133 128 14 23 58 6 156 -58z"/>
<path d="M645 6823 c-11 -2 -76 -18 -145 -34 -69 -16 -135 -32 -147 -34 -25
-6 -33 -50 -10 -58 6 -2 50 5 97 15 47 11 130 30 185 42 95 21 100 23 103 49
3 25 1 27 -30 26 -18 -1 -42 -3 -53 -6z"/>
<path d="M12554 6775 c-9 -22 14 -158 28 -166 16 -10 36 0 42 19 3 10 -1 49
-7 87 -10 61 -15 70 -35 73 -13 2 -25 -3 -28 -13z"/>
<path d="M6816 6448 c-12 -46 -7 -108 10 -115 24 -9 42 18 44 67 4 66 2 70
-24 70 -16 0 -26 -7 -30 -22z"/>
<path d="M8170 6327 c-46 -23 -109 -216 -110 -335 0 -46 -3 -54 -25 -64 -19
-8 -28 -8 -41 3 -20 16 -14 58 21 172 30 95 31 117 4 151 -26 33 -41 33 -79
-1 -36 -34 -56 -104 -66 -238 l-7 -95 -68 -46 c-92 -61 -132 -109 -124 -149
23 -124 8 -182 -53 -197 -26 -7 -34 -15 -39 -41 -4 -18 -6 -35 -5 -39 4 -16
-40 -19 -57 -4 -24 22 -32 20 -58 -11 l-23 -28 -25 30 -24 30 -31 -19 c-31
-18 -32 -18 -56 5 -22 20 -27 22 -46 10 -18 -11 -23 -10 -43 16 l-23 28 -25
-23 c-33 -31 -57 -25 -71 18 -10 31 -15 35 -43 32 -29 -3 -31 -1 -38 37 -4 23
-11 41 -16 41 -11 0 -12 -6 -15 -85 -1 -33 -5 -92 -9 -131 -7 -66 -6 -72 19
-101 27 -32 86 -57 163 -69 38 -6 49 -2 126 45 113 68 172 82 324 79 110 -3
124 -1 150 18 64 48 95 152 97 333 2 160 21 169 71 36 20 -55 82 -166 98 -177
6 -3 17 -4 25 -1 20 8 11 88 -22 182 -27 78 -33 126 -16 136 19 12 50 -6 55
-33 37 -179 98 -343 137 -366 25 -15 48 10 48 53 0 20 -9 70 -20 111 -11 41
-23 110 -27 153 l-6 77 41 0 c22 0 44 -5 47 -10 4 -6 8 -77 9 -158 2 -107 7
-157 19 -184 18 -43 28 -46 56 -17 16 18 22 19 40 7 34 -21 51 -1 96 121 47
124 54 135 78 125 23 -9 21 -26 -13 -124 -35 -101 -40 -170 -11 -170 24 0 31
10 70 102 39 90 63 117 86 98 22 -18 20 -26 -25 -96 -49 -78 -57 -106 -34
-125 15 -12 20 -10 43 20 55 72 98 114 109 107 19 -12 14 -31 -18 -72 -54 -67
-16 -117 41 -55 15 17 34 31 42 31 21 0 28 -25 17 -55 -5 -14 -9 -49 -8 -77 0
-29 -2 -105 -7 -168 -7 -111 -6 -116 17 -150 13 -19 35 -41 50 -49 23 -13 28
-13 43 -1 15 13 17 28 10 142 -4 82 -3 128 3 128 5 0 31 -34 57 -76 63 -101
108 -144 151 -144 60 0 71 55 24 115 -16 21 -30 42 -30 46 0 5 28 -7 63 -26
93 -51 137 -45 137 20 0 45 -22 70 -100 112 -98 53 -95 65 7 38 72 -19 88 -19
107 1 34 33 -18 71 -162 119 l-54 17 -36 -33 c-36 -33 -36 -33 -9 -3 39 43 26
49 -108 50 -105 0 -110 1 -110 21 0 13 13 31 34 45 96 65 43 122 -60 64 -24
-14 -46 -23 -51 -20 -17 11 -7 42 18 59 49 32 104 87 104 105 0 55 -65 45
-144 -20 -50 -42 -91 -50 -91 -19 0 9 41 51 92 93 108 89 122 109 97 137 -9
10 -29 19 -44 19 -44 0 -132 -51 -193 -112 -61 -61 -77 -68 -97 -43 -18 22 25
88 121 187 99 102 106 113 83 139 -21 23 -64 25 -104 4 -38 -20 -101 -99 -152
-193 -22 -40 -46 -76 -53 -78 -6 -3 -24 0 -38 5 -45 17 -34 79 49 284 49 120
53 142 25 157 -45 24 -126 -40 -162 -127 -12 -30 -31 -100 -43 -156 -20 -99
-22 -102 -50 -105 -15 -2 -39 -1 -52 2 -21 6 -24 12 -24 56 0 30 14 91 35 154
42 124 43 149 10 181 -27 28 -39 30 -75 12z m281 -507 c10 -6 19 -18 19 -27 0
-25 -61 -217 -72 -228 -13 -13 -1 220 13 247 11 21 14 21 40 8z"/>
<path d="M6591 6283 c-5 -10 -12 -48 -16 -84 -7 -70 -1 -85 34 -74 14 4 20 21
28 78 6 39 8 78 5 85 -6 18 -40 15 -51 -5z"/>
<path d="M7535 6139 c-147 -15 -163 -24 -239 -139 -36 -54 -79 -109 -95 -123
l-29 -24 151 -150 c84 -83 157 -149 164 -146 7 2 18 -5 25 -16 20 -32 47 -26
64 15 8 20 27 46 41 58 l26 22 -28 41 c-33 50 -28 73 23 110 74 54 102 87 117
137 23 77 20 129 -11 166 -30 35 -74 61 -101 59 -10 -1 -58 -6 -108 -10z m15
-165 c29 -75 -2 -134 -95 -179 l-54 -27 -38 19 c-47 22 -53 51 -21 95 32 46
56 66 113 93 65 31 83 31 95 -1z"/>
<path d="M2808 6103 c-27 -17 -68 -96 -102 -197 -20 -59 -14 -96 23 -151 37
-53 51 -167 25 -196 -9 -11 -22 -19 -28 -19 -6 0 -34 -16 -63 -36 -34 -23 -56
-33 -65 -27 -83 52 -109 79 -115 117 -9 55 -43 88 -158 151 -108 60 -157 69
-175 36 -11 -22 -14 -61 -3 -61 4 0 25 17 48 37 38 37 38 36 -4 -9 l-45 -48
41 -82 c65 -131 107 -166 185 -153 35 6 41 3 93 -46 52 -49 67 -80 45 -94 -5
-3 -17 -31 -27 -61 -20 -66 -35 -74 -129 -74 -43 0 -76 6 -97 18 -27 14 -56
17 -178 16 -193 -2 -251 -22 -229 -80 11 -29 93 -99 145 -124 55 -27 142 -41
189 -30 20 4 57 21 83 38 37 23 64 32 118 36 39 4 75 3 81 -1 6 -4 19 -23 29
-42 48 -95 177 -174 359 -221 227 -59 345 -114 439 -206 99 -98 149 -120 195
-88 17 12 22 25 22 58 0 62 -50 138 -179 272 -131 136 -157 183 -205 375 -50
200 -95 277 -195 331 -36 20 -51 52 -51 108 0 30 7 45 30 67 43 40 46 78 16
222 -33 165 -59 201 -118 164z"/>
<path d="M10133 5933 c-7 -3 -13 -20 -13 -38 0 -36 41 -95 66 -95 23 0 28 30
10 60 -9 16 -16 35 -16 44 0 18 -29 35 -47 29z"/>
<path d="M12210 5864 c-374 -155 -437 -189 -487 -265 -35 -53 -39 -117 -24
-343 15 -205 31 -289 68 -358 30 -56 117 -132 140 -124 8 3 12 2 8 -3 -6 -10
60 -54 145 -98 19 -10 37 -20 40 -23 12 -12 60 -40 60 -34 0 3 13 -6 30 -19
35 -30 181 -102 226 -111 67 -15 125 31 216 169 l60 90 -30 25 c-16 14 -78 63
-137 110 -124 97 -165 147 -165 197 0 68 47 133 97 133 31 0 29 -19 -7 -68
-16 -23 -30 -52 -30 -65 0 -29 79 -107 192 -190 84 -62 101 -84 93 -119 -5
-20 7 -31 82 -83 109 -75 162 -104 191 -105 l22 0 0 233 0 233 -45 32 c-25 17
-45 37 -45 43 0 6 19 50 42 98 35 72 42 98 46 162 4 77 4 77 -33 118 -77 85
-417 317 -556 381 -61 27 -101 24 -199 -16z"/>
<path d="M7124 5836 c-43 -23 -54 -39 -54 -73 0 -18 -7 -50 -15 -70 -29 -69
-15 -109 33 -96 17 4 22 -1 28 -32 9 -48 30 -55 61 -19 14 16 26 24 29 18 22
-51 56 -55 74 -9 12 33 19 32 31 -5 14 -38 45 -40 61 -5 14 32 31 27 38 -11 6
-33 36 -40 54 -12 9 15 -12 40 -144 173 -85 85 -159 155 -165 154 -5 -1 -20
-6 -31 -13z"/>
<path d="M3587 5773 c-14 -24 -37 -114 -39 -152 -2 -33 1 -46 15 -55 44 -28
65 77 25 123 l-23 26 26 -23 26 -23 13 45 c7 24 9 49 5 55 -7 12 -42 15 -48 4z"/>
<path d="M3741 5611 c-13 -8 -18 -93 -12 -196 1 -20 47 -20 55 1 14 35 5 69
-26 104 l-33 35 33 -29 32 -30 0 50 c0 62 -17 85 -49 65z"/>
<path d="M7881 5518 c-5 -13 -19 -48 -32 -78 -28 -67 -38 -247 -16 -290 26
-52 97 -29 97 31 0 36 4 36 48 2 46 -35 68 -23 64 36 -2 39 -1 41 27 41 41 0
57 22 41 60 -7 16 -16 30 -21 30 -17 0 -9 37 11 55 39 35 15 75 -43 75 -14 0
-51 14 -82 30 -68 36 -83 37 -94 8z"/>
<path d="M3 5395 c0 -22 2 -30 4 -17 2 12 2 30 0 40 -3 9 -5 -1 -4 -23z"/>
<path d="M5560 5305 c-23 -28 9 -48 82 -49 53 -1 63 2 66 18 6 27 -6 33 -74
41 -49 5 -63 4 -74 -10z"/>
<path d="M5171 5271 c-32 -20 19 -68 80 -75 46 -5 59 2 59 30 0 18 -7 25 -27
29 -16 3 -42 10 -59 15 -37 12 -35 12 -53 1z"/>
<path d="M911 5237 c-8 -11 -6 -43 9 -127 12 -62 23 -117 26 -122 9 -14 44 -9
50 7 6 15 -22 193 -37 233 -10 25 -31 29 -48 9z"/>
<path d="M1117 5123 c-14 -14 -6 -33 39 -87 25 -32 50 -53 56 -50 6 4 8 3 5
-3 -3 -5 12 -27 33 -48 22 -22 40 -35 40 -30 0 5 6 1 13 -10 8 -10 19 -15 26
-11 7 4 10 2 9 -5 -2 -7 12 -23 31 -36 31 -21 37 -22 49 -9 13 13 13 18 -2 41
-11 16 -23 24 -32 21 -8 -3 -13 -2 -9 3 3 5 -8 19 -25 31 -16 12 -30 19 -30
17 0 -8 -76 73 -122 131 -38 48 -64 62 -81 45z"/>
<path d="M10425 5089 c-33 -10 -64 -45 -65 -72 0 -12 -16 -25 -47 -39 -78 -33
-103 -63 -103 -121 0 -42 5 -53 30 -77 17 -16 52 -36 78 -45 52 -17 107 -55
144 -100 14 -17 74 -104 134 -194 262 -395 384 -556 508 -670 l26 -25 43 40
42 39 -39 -42 c-46 -50 -57 -33 94 -142 52 -37 138 -93 191 -124 66 -39 119
-80 170 -132 121 -125 192 -153 246 -99 23 23 25 30 18 79 -6 53 -6 54 24 70
56 28 77 105 46 164 -24 48 -70 53 -175 20 l-67 -22 -44 26 c-48 28 -331 279
-465 412 -213 212 -377 422 -464 594 -40 80 -54 118 -91 251 -36 126 -66 175
-122 201 -46 20 -66 22 -112 8z"/>
<path d="M0 4810 c0 -225 0 -230 20 -230 28 0 67 -21 160 -85 128 -88 487
-305 780 -471 179 -101 325 -111 407 -29 39 39 41 64 9 120 -51 86 -286 257
-586 427 -19 11 -39 24 -45 28 -16 13 -374 212 -457 255 -58 30 -82 48 -93 71
-8 17 -29 42 -47 56 -37 27 -136 88 -143 88 -3 0 -5 -103 -5 -230z"/>
<path d="M4398 4918 c-5 -42 -17 -68 -33 -68 -7 0 -32 9 -56 19 -24 10 -63 22
-86 26 -38 6 -43 5 -43 -12 0 -11 14 -29 30 -41 38 -29 38 -40 -2 -44 -39 -4
-44 -18 -19 -49 17 -21 28 -24 88 -24 72 -1 93 -7 93 -30 0 -10 -10 -12 -40
-8 -39 5 -40 5 -40 -24 0 -17 8 -37 18 -45 16 -14 32 -20 117 -45 17 -5 31
-17 33 -27 3 -16 0 -18 -25 -11 -15 5 -41 9 -58 9 -26 1 -30 -3 -33 -30 -4
-44 27 -78 93 -99 47 -14 56 -21 53 -38 -4 -30 -22 -31 -56 -2 -41 34 -76 33
-91 -3 -7 -16 -9 -40 -6 -54 8 -30 58 -84 86 -93 24 -8 26 -53 2 -62 -9 -4
-19 -1 -21 6 -10 29 -55 71 -77 71 -28 0 -55 -34 -55 -71 0 -14 14 -54 31 -88
28 -56 30 -65 18 -87 -20 -38 -33 -23 -46 51 -14 77 -26 95 -58 95 -37 0 -53
-10 -76 -46 -28 -46 -28 -139 0 -213 21 -56 19 -76 -6 -86 -24 -9 -33 13 -33
83 0 90 -19 122 -73 122 -72 0 -111 -111 -85 -240 17 -80 12 -100 -24 -100
-18 0 -19 5 -12 84 6 77 5 85 -15 105 -27 27 -75 27 -102 0 -22 -22 -42 -64
-53 -114 -7 -28 -3 -25 61 35 l68 65 -67 -70 -68 -71 0 -61 c0 -64 -7 -73 -51
-73 -18 0 -19 5 -14 38 5 35 -3 28 -200 -168 -113 -113 -205 -208 -205 -211 0
-23 90 -134 138 -170 51 -39 63 -44 112 -44 74 0 75 17 4 97 -48 53 -94 130
-94 157 0 7 28 14 140 36 20 4 31 -3 60 -39 68 -86 192 -152 239 -127 33 18
25 42 -31 89 -55 46 -98 98 -98 118 0 6 20 19 45 28 l45 18 52 -47 c83 -74
159 -105 211 -86 15 6 27 17 27 25 0 8 -28 37 -63 64 -56 45 -98 96 -86 105 2
2 29 18 59 35 l55 31 57 -39 c98 -66 218 -78 226 -23 2 17 -8 28 -45 49 -49
28 -113 82 -113 95 0 4 24 28 54 53 l53 46 36 -15 c56 -23 168 -20 201 6 46
36 31 59 -47 73 -57 10 -87 27 -87 47 0 10 4 20 9 23 5 3 25 31 46 61 33 50
39 55 74 55 59 0 127 28 161 67 50 56 35 65 -82 48 -47 -7 -48 -7 -48 18 0 14
4 29 10 32 5 3 14 24 20 46 9 34 18 43 54 59 47 20 88 58 112 103 20 38 -1 45
-55 18 -66 -34 -71 -31 -71 45 0 57 4 71 28 103 52 69 64 107 43 140 -9 14
-13 10 -66 -51 -22 -26 -29 -23 -53 23 -26 48 -27 62 -7 92 11 18 13 48 6 85
-1 2 -13 -10 -27 -27 -14 -17 -30 -31 -36 -31 -5 0 -31 19 -59 43 -45 38 -48
45 -43 75 7 38 -3 102 -16 102 -6 0 -11 -6 -12 -12z"/>
<path d="M7477 4619 c-86 -57 -149 -149 -116 -170 20 -12 27 -11 41 7 24 31
104 109 137 134 23 18 31 30 26 43 -10 25 -35 21 -88 -14z"/>
<path d="M6294 4535 c-17 -27 -64 -148 -64 -167 0 -7 15 -8 43 -4 87 13 83
-51 -5 -74 -21 -6 -38 -16 -38 -23 0 -15 1 -16 206 -288 176 -232 195 -254
237 -264 15 -4 30 -11 33 -16 3 -5 19 -2 35 7 17 8 38 14 47 12 23 -4 31 -48
15 -81 -22 -43 -13 -70 30 -90 23 -12 37 -26 37 -38 0 -16 -7 -19 -41 -19 -33
0 -51 7 -83 33 -23 19 -54 38 -71 44 -19 6 -31 17 -33 31 -4 23 21 31 33 12
12 -19 64 -11 76 12 10 19 8 25 -15 45 -22 18 -31 21 -47 12 -11 -5 -29 -7
-39 -4 -11 4 -32 8 -47 11 -46 9 -13 -32 -497 609 -73 96 -103 127 -151 149
-31 15 -261 46 -340 46 -66 0 -80 -32 -60 -138 7 -37 18 -99 25 -139 6 -39 17
-79 24 -88 11 -16 17 -15 67 14 57 32 93 39 104 21 13 -21 -7 -48 -56 -75 -28
-15 -53 -34 -56 -42 -6 -16 30 -49 94 -88 68 -42 520 -360 608 -428 28 -22 58
-54 68 -73 10 -19 28 -36 41 -40 29 -7 36 -21 29 -57 -5 -26 -45 -67 -65 -67
-6 0 -7 16 -3 39 4 23 2 48 -4 60 -13 23 -255 187 -301 202 -39 14 -92 4 -115
-21 -15 -17 -16 -24 -7 -45 15 -33 40 -42 56 -20 7 9 21 16 32 14 15 -3 20
-14 22 -47 4 -49 24 -67 87 -77 141 -23 141 -23 159 -68 14 -37 14 -47 1 -82
-14 -39 -13 -41 16 -70 17 -16 39 -45 49 -62 14 -23 27 -33 45 -33 25 0 95 54
95 74 0 6 12 29 26 50 19 27 29 35 37 27 7 -7 5 -20 -8 -45 -16 -29 -17 -39
-7 -60 13 -29 43 -34 63 -10 19 23 65 44 97 44 31 0 74 35 97 81 8 14 25 33
39 42 20 13 25 27 30 79 10 92 9 142 -2 249 -8 78 -15 103 -37 137 -27 41 -29
42 -82 42 -61 0 -117 20 -131 47 -22 43 -122 365 -137 443 -10 47 -25 99 -35
115 -26 43 -167 165 -190 165 -11 0 -27 -11 -36 -25z m380 -1071 c3 -9 -4 -25
-19 -40 -39 -39 -62 -12 -29 34 18 26 39 29 48 6z m116 -56 c0 -47 -14 -66
-34 -49 -28 23 -17 81 15 81 15 0 19 -7 19 -32z m-180 -111 c18 -32 8 -44 -27
-31 -31 11 -48 35 -40 57 9 23 48 8 67 -26z m148 -44 c-4 -22 -38 -30 -38 -10
0 14 13 24 33 26 5 1 7 -7 5 -16z m-281 -29 c6 -16 -15 -37 -29 -28 -4 3 -8
14 -8 25 0 23 28 26 37 3z"/>
<path d="M2303 4353 c-12 -2 -41 -21 -64 -42 -38 -33 -42 -42 -47 -93 -5 -65
24 -140 77 -196 26 -28 34 -32 46 -22 22 19 18 42 -15 82 -58 70 -65 130 -22
179 21 24 36 31 64 31 51 0 73 -15 98 -67 18 -36 27 -45 44 -43 47 7 17 102
-47 145 -33 23 -95 35 -134 26z"/>
<path d="M2656 4188 c-42 -43 -67 -131 -43 -155 22 -22 44 -10 52 29 12 63 27
88 54 94 40 8 56 19 56 40 0 15 -9 20 -43 22 -37 3 -47 -1 -76 -30z"/>
<path d="M9627 4203 c-14 -13 -6 -45 23 -103 21 -42 36 -60 49 -60 34 0 34 34
-1 104 -30 61 -52 79 -71 59z"/>
<path d="M7937 4173 c-24 -3 -35 -8 -31 -15 5 -8 1 -9 -10 -5 -28 11 -99 -26
-134 -71 -71 -89 -95 -198 -95 -427 -1 -138 3 -189 21 -270 31 -141 76 -288
89 -292 6 -2 14 13 18 36 9 53 36 86 95 116 33 17 54 36 67 62 28 55 79 78
178 80 44 0 86 2 93 2 7 1 12 16 13 39 2 60 13 87 37 90 13 2 22 -2 23 -10 0
-7 2 -26 2 -43 2 -21 6 -29 17 -26 51 13 60 12 66 -4 9 -22 -17 -46 -91 -84
-55 -28 -66 -30 -126 -25 -143 14 -216 -56 -92 -88 36 -9 44 -14 41 -32 -4
-27 -46 -33 -87 -12 -45 24 -83 20 -128 -13 -35 -25 -44 -40 -62 -102 -13 -41
-20 -82 -16 -97 7 -29 111 -195 171 -272 55 -71 135 -148 202 -193 165 -112
518 -115 739 -6 237 115 397 379 397 654 0 85 -5 115 -32 200 -37 118 -115
255 -188 333 -48 50 -54 54 -85 47 -54 -12 -66 -22 -100 -85 -35 -67 -101
-133 -127 -128 -28 5 -26 43 2 62 35 22 33 39 -9 70 -37 29 -47 66 -17 66 9 0
32 -9 50 -20 44 -27 50 -26 68 19 14 36 46 61 79 61 78 0 -168 152 -388 239
-244 97 -523 159 -650 144z"/>
<path d="M9807 4173 c-11 -11 -8 -54 9 -115 18 -63 43 -88 64 -63 9 11 8 30
-6 87 -10 40 -22 79 -27 86 -10 13 -30 16 -40 5z"/>
<path d="M12134 4146 c-6 -16 102 -181 124 -190 18 -8 42 4 42 21 0 9 -26 53
-57 99 -44 65 -62 84 -80 84 -13 0 -26 -6 -29 -14z"/>
<path d="M118 3892 l-118 -16 0 -33 c0 -30 2 -32 28 -28 15 3 74 12 131 19
111 15 133 25 115 54 -14 22 -18 22 -156 4z"/>
<path d="M12836 3851 c-80 -12 -112 -21 -120 -33 -8 -13 -7 -21 2 -30 9 -9 34
-9 114 0 171 21 168 20 168 53 0 34 0 34 -164 10z"/>
<path d="M3553 3795 c-36 -25 -56 -91 -60 -199 -2 -66 -7 -102 -15 -108 -14
-9 -68 -11 -68 -3 0 3 9 38 20 77 29 106 27 134 -12 158 -42 26 -57 25 -99 -3
-42 -28 -85 -111 -101 -197 -13 -64 -14 -65 -47 -68 -31 -3 -33 -2 -27 20 3
13 13 59 22 104 19 95 10 129 -41 150 -67 27 -132 -38 -162 -164 -9 -37 -18
-73 -19 -80 -3 -11 -18 -12 -71 -5 -91 11 -145 7 -247 -17 -92 -21 -140 -42
-223 -97 l-52 -35 -40 42 c-36 38 -43 41 -73 35 -18 -4 -36 -9 -40 -12 -15 -8
-8 -55 14 -93 18 -30 20 -42 11 -51 -9 -9 -21 -2 -50 31 -46 51 -80 70 -126
70 -40 0 -87 -33 -87 -61 0 -10 17 -37 37 -60 36 -39 36 -42 18 -55 -27 -20
-32 -18 -63 25 -62 88 -149 107 -199 42 -19 -25 -16 -43 18 -95 19 -32 27 -52
21 -58 -7 -7 -16 -1 -27 16 -38 57 -125 85 -159 50 -9 -8 -16 -18 -16 -20 0
-14 32 -64 40 -64 6 0 10 -9 10 -20 0 -30 -21 -24 -64 16 -48 46 -79 44 -86
-6 -6 -41 -64 -130 -85 -130 -22 0 -18 13 15 50 32 36 40 70 16 70 -32 0 -67
-21 -117 -70 -50 -49 -89 -64 -104 -40 -4 6 14 35 39 65 48 55 57 82 31 91
-22 9 -79 -31 -134 -93 -49 -55 -49 -55 -85 -43 -20 6 -36 16 -36 21 0 18 22
53 66 106 45 53 54 77 31 86 -33 12 -126 -62 -178 -143 -15 -22 -19 -23 -43
-12 -26 11 -26 13 -12 40 8 16 31 48 50 71 39 47 43 59 22 67 -23 9 -78 -25
-131 -82 -43 -46 -54 -52 -78 -47 -16 3 -31 12 -34 19 -3 7 10 45 27 83 30 64
33 91 10 91 -21 0 -80 -65 -101 -110 -24 -53 -35 -62 -68 -53 -25 6 -25 11 -6
83 19 72 19 80 -4 80 -26 0 -56 -40 -77 -103 -21 -64 -30 -77 -59 -77 -26 0
-35 17 -35 65 0 47 -9 65 -32 65 -24 0 -48 -54 -48 -107 0 -21 -4 -44 -9 -51
-12 -20 -55 -11 -59 13 -11 73 -31 89 -68 54 -28 -26 -40 -20 -48 26 -13 69
-68 64 -116 -12 -30 -47 -30 -48 -30 -191 0 -136 1 -145 22 -162 28 -22 28
-72 -1 -128 -20 -39 -21 -57 -21 -297 l0 -255 35 0 c40 0 67 31 63 71 -3 21 2
24 34 27 40 3 62 27 56 60 -1 9 12 31 30 49 26 26 31 37 26 61 -6 27 3 38 93
128 136 137 176 229 139 318 -20 49 -20 49 5 43 30 -8 35 19 10 53 -26 36 -27
50 -1 50 11 0 20 -5 20 -10 0 -6 20 -31 45 -55 33 -34 52 -45 75 -45 20 0 30
5 30 15 0 21 7 19 42 -10 16 -14 35 -25 43 -25 19 0 27 28 14 51 -5 11 -8 28
-6 37 4 18 10 7 38 -67 29 -77 83 -89 77 -17 -2 34 0 41 16 41 15 0 23 -14 36
-64 10 -35 28 -73 39 -85 22 -20 23 -21 36 -2 10 13 12 33 8 62 -4 28 -2 44 5
44 25 0 62 -21 62 -34 0 -42 25 -120 45 -144 20 -23 25 -25 40 -12 14 12 16
25 11 72 l-6 58 28 0 c26 0 28 -4 40 -67 15 -78 34 -113 62 -113 22 0 24 9 21
92 -3 54 -1 58 24 68 14 5 37 7 50 4 21 -5 23 -12 30 -98 7 -97 3 -126 -26
-191 -10 -22 -19 -48 -19 -57 0 -50 83 -66 126 -23 39 39 53 83 64 207 14 147
20 180 34 175 17 -6 24 -51 25 -164 1 -91 3 -103 21 -113 23 -13 53 0 66 27 4
10 8 74 8 143 1 118 2 125 21 125 36 0 55 -136 40 -278 -6 -58 -5 -71 10 -87
25 -27 39 -25 68 10 71 84 90 244 46 393 -19 67 -20 80 -8 88 8 5 18 9 22 9
14 0 47 -90 64 -176 14 -74 15 -96 3 -185 -16 -117 -8 -154 30 -154 20 0 31
11 52 50 61 114 63 329 4 494 -9 24 -16 49 -16 56 0 11 40 35 60 35 9 0 43
-97 61 -175 6 -27 10 -93 9 -145 -4 -168 0 -184 49 -178 31 4 55 43 77 128 20
78 14 213 -16 336 -11 49 -15 83 -9 88 16 17 30 -9 39 -76 12 -83 18 -98 40
-98 32 0 44 30 50 119 l5 86 34 3 c33 3 33 3 27 -30 -3 -18 -11 -71 -17 -118
-12 -99 -47 -242 -90 -370 -16 -50 -33 -112 -36 -138 -5 -42 -2 -52 22 -81
l28 -33 79 79 c72 71 78 81 78 118 0 67 27 152 92 289 33 71 63 149 66 173 3
25 10 43 17 43 17 0 24 -19 36 -104 8 -61 14 -76 46 -109 l37 -37 72 71 c66
66 74 77 94 148 12 42 26 80 30 85 5 4 16 -6 24 -23 9 -17 20 -31 23 -31 4 0
30 21 58 48 l50 47 -50 -53 -50 -54 53 -47 c45 -42 104 -71 140 -71 13 0 42
28 42 40 0 5 -25 37 -56 72 -60 67 -110 159 -100 184 4 11 18 15 51 13 l46 -3
203 203 c190 190 204 206 210 247 13 97 -53 157 -121 109z m-1088 -615 c121
-121 218 -220 215 -220 -3 0 -104 99 -225 220 -121 121 -218 220 -215 220 3 0
104 -99 225 -220z m-1825 -241 c0 -6 -4 -7 -10 -4 -5 3 -10 11 -10 16 0 6 5 7
10 4 6 -3 10 -11 10 -16z"/>
<path d="M12374 3645 c-11 -27 4 -42 49 -49 49 -8 97 6 97 28 0 21 -13 27 -80
32 -48 4 -61 2 -66 -11z"/>
<path d="M10451 3413 c-11 -10 -27 -36 -35 -58 l-13 -40 -71 0 c-73 0 -99 -11
-89 -39 4 -11 19 -16 46 -16 22 0 46 -3 55 -6 26 -10 18 -24 -12 -24 -41 0
-119 -29 -126 -47 -14 -35 1 -38 112 -17 30 6 62 -7 62 -26 0 -3 -16 -12 -36
-18 -20 -6 -60 -25 -89 -43 -59 -35 -83 -70 -61 -88 17 -14 40 -5 93 35 52 40
81 50 97 34 8 -9 -4 -25 -50 -68 -73 -68 -90 -95 -69 -112 18 -15 38 -4 100
59 27 28 57 51 66 51 9 0 29 -10 44 -22 19 -15 46 -23 84 -26 49 -3 62 0 104
27 79 51 87 111 29 223 -39 74 -120 189 -157 220 -26 22 -57 22 -84 1z m199
-156 c0 -1 -87 -88 -192 -192 l-193 -190 190 193 c176 178 195 197 195 189z"/>
<path d="M5421 3341 c-13 -24 -3 -134 14 -158 7 -10 19 -14 29 -10 14 6 16 20
14 94 -3 82 -5 88 -25 91 -14 2 -26 -4 -32 -17z"/>
<path d="M5644 3179 c-4 -7 -10 -62 -12 -121 -4 -95 -3 -108 12 -114 34 -13
44 16 48 131 3 106 2 110 -19 113 -11 2 -25 -3 -29 -9z"/>
<path d="M12932 3033 c-131 -81 -215 -176 -288 -331 -41 -85 -56 -104 -194
-244 -168 -171 -187 -201 -177 -292 7 -68 38 -141 68 -156 12 -7 40 -12 63
-12 32 1 53 -7 96 -38 97 -67 138 -53 94 33 l-17 31 24 -17 c48 -35 88 -48
110 -36 21 11 21 26 2 75 -5 14 -1 13 24 -5 37 -28 91 -26 107 4 6 11 12 22
13 24 1 2 16 -2 32 -9 35 -14 64 -7 91 23 19 19 20 36 20 273 l0 253 -32 -31
c-57 -53 -155 -86 -173 -58 -5 8 28 107 77 233 14 35 61 61 99 53 l29 -5 0
134 c0 74 -1 135 -3 135 -2 0 -31 -17 -65 -37z m-524 -775 c5 -7 12 -34 16
-59 8 -53 -8 -79 -48 -79 -46 0 -59 48 -32 115 16 36 44 47 64 23z"/>
<path d="M2902 2867 l-62 -62 58 -60 57 -60 -60 58 -61 57 -29 -28 -30 -27 28
31 27 30 -37 35 c-26 24 -34 28 -29 14 5 -11 10 -108 12 -215 6 -226 14 -270
54 -293 54 -32 130 -16 156 34 19 38 18 91 -5 170 -27 95 -34 185 -20 284 6
47 9 88 7 90 -2 3 -32 -24 -66 -58z"/>
<path d="M10650 2898 c-15 -6 -60 -7 -111 -4 -74 6 -88 4 -93 -10 -9 -22 -1
-31 41 -45 45 -15 172 -5 213 16 40 21 41 55 3 54 -16 0 -39 -5 -53 -11z"/>
<path d="M4620 2868 c0 -12 12 -41 26 -66 31 -52 26 -60 -51 -86 l-50 -17 -40
44 c-22 24 -55 60 -73 80 -47 52 -88 45 -47 -9 36 -47 3 -91 -61 -81 -42 7
-55 -10 -24 -35 31 -25 72 -23 100 7 13 14 29 25 36 25 7 0 31 -18 53 -40 22
-22 45 -40 51 -40 6 0 43 14 81 30 74 33 97 31 119 -11 9 -16 4 -30 -29 -80
-22 -33 -43 -68 -46 -79 -8 -24 14 -67 80 -155 85 -114 85 -101 7 -195 -151
-185 -150 -182 -97 -283 68 -130 206 -328 357 -514 57 -70 88 -90 88 -58 0 8
-5 15 -12 15 -6 0 -8 3 -5 7 9 9 -13 34 -24 27 -5 -3 -8 -1 -7 4 3 10 -15 37
-107 161 -135 182 -253 365 -270 419 -9 31 13 82 35 82 10 0 53 -29 95 -66 52
-43 84 -64 98 -62 13 2 42 31 72 70 28 38 61 70 74 74 27 8 95 -14 181 -57 52
-25 78 -33 107 -30 16 1 83 133 83 161 0 13 -7 20 -19 20 -13 0 -26 -17 -45
-60 -14 -33 -33 -63 -41 -67 -12 -4 -95 23 -95 31 0 1 -11 33 -25 71 -32 92
-32 104 5 112 63 12 45 43 -26 43 -65 0 -72 -16 -41 -103 15 -41 22 -76 17
-81 -5 -5 -22 -4 -41 3 -71 25 -98 11 -173 -91 -15 -21 -35 -38 -44 -38 -19 0
-152 106 -152 120 0 5 29 42 65 82 36 40 65 81 65 90 0 10 -36 67 -80 129 -44
61 -80 115 -80 120 0 16 26 62 59 103 17 21 31 47 31 56 0 10 -16 37 -35 60
-20 24 -54 74 -76 111 -40 69 -69 89 -69 47z"/>
<path d="M10680 2789 c-14 -6 -68 -10 -120 -9 -134 2 -130 3 -130 -24 0 -28
28 -36 134 -36 114 0 202 34 175 67 -13 15 -24 16 -59 2z"/>
<path d="M521 2688 c-14 -61 -36 -100 -103 -176 -53 -60 -69 -102 -57 -145 6
-21 2 -37 -13 -64 -21 -35 -21 -36 -3 -69 15 -28 16 -39 7 -59 -12 -27 -8 -50
16 -77 12 -15 13 -23 2 -47 -9 -23 -9 -38 0 -66 11 -33 10 -39 -9 -59 -13 -14
-21 -35 -21 -57 0 -23 -6 -38 -20 -47 -15 -9 -20 -23 -20 -55 0 -37 -4 -46
-25 -55 -32 -15 -32 -40 3 -102 30 -54 50 -62 100 -36 44 23 128 118 161 184
17 34 40 96 52 139 28 100 57 166 103 230 74 103 95 185 77 302 -11 71 -48
161 -91 221 -30 42 -97 90 -126 90 -19 0 -24 -8 -33 -52z"/>
<path d="M7150 2705 c-10 -12 -8 -21 8 -47 32 -51 87 -100 108 -96 34 6 27 38
-20 88 -25 27 -46 54 -46 60 0 15 -36 12 -50 -5z"/>
<path d="M1377 2653 c-3 -10 -9 -34 -12 -53 -4 -19 -18 -59 -31 -87 -30 -68
-38 -99 -26 -107 29 -18 80 105 83 202 2 54 -5 77 -14 45z"/>
<path d="M10470 2662 c-5 -2 -10 -12 -10 -23 0 -27 38 -39 123 -38 94 1 152
18 152 44 0 19 -7 20 -127 20 -71 0 -132 -1 -138 -3z"/>
<path d="M10473 2547 c-3 -5 4 -19 16 -30 40 -40 252 -33 268 9 3 8 3 18 -1
21 -10 10 -277 10 -283 0z"/>
<path d="M11456 2468 c-3 -46 -7 -148 -8 -228 l-3 -145 25 0 c23 0 25 4 31 65
4 36 8 137 10 225 l4 160 -27 3 c-26 3 -26 3 -32 -80z"/>
<path d="M2465 2430 l-69 -70 35 0 c45 0 84 29 99 75 23 70 8 68 -65 -5z"/>
<path d="M3063 2458 c-6 -7 -13 -31 -16 -52 -4 -27 -18 -52 -43 -77 -24 -25
-35 -43 -30 -54 8 -21 81 -53 226 -99 141 -45 311 -129 430 -212 25 -17 54
-34 65 -38 27 -9 -327 346 -390 391 -27 20 -73 56 -102 80 -42 36 -107 73
-126 73 -3 0 -9 -6 -14 -12z"/>
<path d="M10470 2445 c-19 -23 3 -42 61 -54 83 -18 88 -15 42 29 -45 42 -81
51 -103 25z"/>
<path d="M10589 2416 c29 -30 42 -36 75 -36 66 0 116 18 116 40 0 18 -7 20
-87 20 -49 0 -99 3 -113 7 -24 5 -23 4 9 -31z"/>
<path d="M1528 2385 c-21 -31 -36 -41 -90 -59 -26 -8 -22 -21 17 -50 19 -15
53 -60 76 -102 43 -78 78 -114 113 -114 11 0 30 -7 40 -15 27 -21 73 -19 85 3
11 21 -5 64 -41 107 -51 62 -90 127 -109 182 -32 94 -54 105 -91 48z"/>
<path d="M5980 2407 c-51 -17 -70 -62 -70 -162 l0 -80 123 120 122 120 -123
-126 -123 -126 16 -89 c20 -107 49 -217 76 -293 104 -286 130 -401 130 -575 0
-199 -42 -373 -111 -470 -52 -71 -135 -132 -371 -270 -150 -87 -212 -165 -175
-221 35 -53 190 -47 377 14 171 56 169 56 169 -21 0 -35 3 -100 7 -145 l6 -83
527 0 527 0 27 60 c15 33 30 82 33 109 7 62 19 82 34 61 6 -9 9 -57 6 -122
l-3 -108 163 0 163 0 136 135 c141 141 168 182 180 268 9 60 -19 145 -63 197
-19 22 -64 61 -99 86 -85 61 -107 103 -107 204 0 41 8 113 18 160 72 349 -122
688 -565 985 -254 170 -622 328 -860 370 -100 18 -123 18 -170 2z m792 -1606
c40 -37 42 -42 46 -108 3 -57 -1 -80 -22 -133 -28 -68 -46 -157 -46 -228 0
-60 -14 -82 -51 -82 -66 0 -120 51 -159 150 -49 124 -13 311 78 408 24 26 38
32 71 32 35 0 49 -7 83 -39z"/>
<path d="M2552 2364 c-10 -20 -35 -45 -57 -57 -21 -12 -40 -28 -43 -35 -6 -18
58 -77 169 -154 89 -63 239 -207 323 -311 49 -62 79 -77 105 -53 10 9 32 21
47 25 40 10 43 48 8 90 -15 18 -80 77 -144 131 -130 109 -165 148 -241 259
-65 95 -108 141 -131 141 -10 0 -25 -15 -36 -36z"/>
<path d="M1340 2332 c0 -4 21 -39 48 -78 26 -39 52 -79 57 -87 6 -9 19 -17 30
-19 16 -2 21 3 23 26 3 24 -7 39 -67 97 -64 63 -91 81 -91 61z"/>
<path d="M10531 2326 c-23 -28 3 -44 85 -51 88 -9 106 1 69 35 -33 31 -133 41
-154 16z"/>
<path d="M10687 2333 c-10 -9 33 -53 53 -53 8 0 26 7 38 16 18 13 21 19 11 30
-12 14 -90 20 -102 7z"/>
<path d="M3560 2086 c184 -185 200 -195 221 -139 5 13 20 28 34 33 17 6 25 17
25 33 0 45 -59 81 -265 162 -66 26 -136 56 -155 67 -20 12 39 -54 140 -156z"/>
<path d="M10665 2230 c-75 -4 -90 -8 -93 -22 -5 -28 43 -41 125 -35 39 3 81
11 93 17 26 14 23 43 -5 49 -20 3 -20 3 0 -20 l20 -24 -25 20 c-22 18 -36 19
-115 15z"/>
<path d="M1035 2216 c-18 -13 -18 -17 -4 -62 l15 -49 105 -1 c57 0 137 -8 177
-17 94 -22 152 -22 152 -2 0 8 -13 21 -29 29 -15 8 -34 29 -41 46 -12 29 -14
30 -84 30 -39 0 -109 9 -156 20 -102 23 -111 24 -135 6z"/>
<path d="M11646 2202 c-9 -15 -27 -239 -20 -256 8 -22 51 -20 58 2 2 9 6 71 8
137 3 116 2 120 -19 123 -11 2 -24 -1 -27 -6z"/>
<path d="M933 2125 c-63 -66 -55 -87 12 -29 52 45 69 74 43 74 -6 0 -31 -20
-55 -45z"/>
<path d="M10785 2135 c-5 -2 -40 -6 -77 -10 -62 -6 -68 -9 -68 -30 0 -28 27
-35 106 -24 66 9 95 29 74 53 -13 16 -17 17 -35 11z"/>
<path d="M976 2078 c-19 -31 -39 -98 -32 -105 7 -8 5 -10 49 56 20 30 34 58
31 63 -10 15 -33 8 -48 -14z"/>
<path d="M1047 2053 c-4 -3 -7 -19 -7 -34 0 -74 37 -83 39 -9 0 35 -3 50 -13
50 -7 0 -16 -3 -19 -7z"/>
<path d="M10702 2038 c-35 -35 11 -57 87 -42 37 7 47 13 49 32 3 21 0 22 -60
22 -37 0 -69 -5 -76 -12z"/>
<path d="M1565 1995 c-27 -19 -98 -51 -157 -70 -110 -37 -158 -65 -158 -92 0
-9 20 -36 44 -60 50 -50 57 -49 124 9 39 34 123 74 241 117 46 17 92 38 103
47 35 32 17 57 -35 47 -16 -3 -39 3 -60 16 -19 12 -38 21 -43 21 -5 -1 -31
-16 -59 -35z"/>
<path d="M10776 1954 c-33 -32 -13 -49 45 -39 41 7 73 30 64 46 -10 15 -92 10
-109 -7z"/>
<path d="M3822 1898 l-42 -32 52 -56 53 -55 -63 60 c-62 59 -63 60 -90 45 -25
-15 -28 -23 -39 -115 -9 -84 -9 -104 3 -122 25 -40 55 -27 79 32 36 90 53 105
75 65 15 -27 48 -26 59 3 14 37 13 189 -1 199 -23 14 -44 8 -86 -24z"/>
<path d="M8215 1853 c-93 -137 -22 -246 109 -169 47 27 100 94 111 139 9 34
-25 56 -49 31 -9 -8 -16 -21 -16 -27 0 -22 -58 -84 -91 -97 -56 -24 -60 25 -7
93 24 31 27 41 18 52 -21 25 -48 17 -75 -22z"/>
<path d="M10845 1880 c-8 -14 3 -30 21 -30 8 0 14 9 14 20 0 21 -24 28 -35 10z"/>
<path d="M1147 1819 c-49 -43 -72 -79 -51 -79 16 0 134 105 134 120 0 22 -28
8 -83 -41z"/>
<path d="M1180 1738 c-28 -51 -40 -103 -21 -96 17 6 91 112 91 130 0 11 -7 18
-20 18 -13 0 -29 -17 -50 -52z"/>
<path d="M1272 1718 c-16 -16 -15 -70 2 -94 19 -25 23 -19 31 49 6 46 5 57 -7
57 -8 0 -19 -5 -26 -12z"/>
<path d="M3057 1709 c-21 -11 -46 -17 -56 -14 -28 9 -60 -25 -70 -75 -5 -25
-15 -64 -22 -88 -9 -33 -9 -45 1 -57 20 -24 52 -14 77 25 50 79 50 79 77 46
31 -37 53 -29 61 21 4 21 13 60 21 86 24 77 -10 98 -89 56z"/>
<path d="M2125 1607 c-42 -22 -61 -39 -63 -55 -5 -35 21 -36 89 -1 72 36 82
45 68 71 -13 24 -24 23 -94 -15z"/>
<path d="M9305 1617 c-106 -36 -216 -103 -347 -214 -108 -91 -151 -141 -167
-193 -24 -80 6 -104 144 -114 98 -7 286 -42 435 -82 114 -30 348 -74 394 -74
19 0 45 9 61 22 43 33 32 88 -48 250 -106 213 -205 346 -290 389 -50 26 -130
33 -182 16z m-154 -247 c13 -7 19 -21 19 -43 0 -40 -21 -72 -61 -93 -28 -14
-33 -14 -55 1 -46 30 -23 103 40 131 38 16 34 16 57 4z m479 -95 c38 -20 50
-43 50 -99 0 -37 -5 -49 -24 -61 -26 -17 -62 -9 -85 19 -32 39 -31 127 2 148
17 11 24 10 57 -7z"/>
<path d="M10127 1613 c-20 -19 2 -53 91 -142 107 -108 144 -136 167 -127 31
11 12 39 -107 156 -115 114 -136 129 -151 113z"/>
<path d="M3686 1558 c-2 -7 -9 -38 -15 -69 -7 -31 -25 -77 -40 -102 -27 -41
-106 -107 -130 -107 -23 0 -71 -53 -71 -79 0 -39 9 -43 38 -21 14 11 42 23 64
26 103 17 221 172 235 309 l6 55 -42 0 c-25 0 -43 -5 -45 -12z"/>
<path d="M3590 1535 c-7 -8 -45 -34 -85 -56 -72 -41 -125 -99 -90 -99 40 0
151 73 187 122 22 32 12 62 -12 33z"/>
<path d="M3614 1488 c-48 -54 -108 -96 -187 -132 -41 -19 -84 -45 -96 -57 -25
-27 -28 -81 -6 -99 12 -10 18 -7 32 20 13 22 41 43 96 71 94 48 158 104 188
166 28 59 13 77 -27 31z"/>
<path d="M10561 1436 c-8 -10 -9 -33 -4 -77 7 -59 10 -64 33 -64 24 0 25 2 25
68 0 49 -4 70 -15 77 -20 13 -26 12 -39 -4z"/>
<path d="M2880 1403 c-26 -91 -86 -153 -187 -193 -68 -27 -93 -46 -93 -71 0
-26 17 -32 42 -15 12 9 40 16 61 16 57 0 101 23 157 82 48 50 110 155 110 185
0 13 -39 33 -65 33 -8 0 -19 -17 -25 -37z"/>
<path d="M2726 1391 c-55 -23 -95 -46 -105 -61 l-16 -23 39 6 c64 10 186 82
186 109 0 11 -4 10 -104 -31z"/>
<path d="M2810 1371 c-50 -40 -87 -58 -177 -82 -85 -23 -133 -57 -133 -96 0
-34 24 -38 52 -10 13 13 57 34 98 46 87 27 150 67 185 119 41 60 31 69 -25 23z"/>
<path d="M4330 1185 c-11 -13 -9 -20 9 -39 49 -52 121 -71 121 -32 0 16 -85
86 -105 86 -7 0 -18 -7 -25 -15z"/>
<path d="M12417 1175 c-10 -9 -17 -20 -17 -24 0 -22 45 -133 96 -238 52 -108
65 -126 153 -213 83 -82 200 -178 319 -259 l32 -22 0 185 0 185 -83 98 c-95
111 -155 156 -313 237 -130 66 -164 75 -187 51z"/>
<path d="M1146 1064 c-9 -8 -16 -12 -16 -9 0 4 -9 -3 -21 -16 -11 -13 -17 -17
-13 -9 4 8 -5 4 -19 -9 -15 -13 -24 -28 -20 -34 3 -6 2 -7 -4 -4 -5 3 -17 -3
-27 -14 -17 -20 -17 -22 0 -40 17 -19 18 -19 58 20 73 70 82 77 93 74 15 -5
34 22 27 41 -8 20 -38 21 -58 0z"/>
<path d="M11340 1026 c-198 -75 -374 -204 -537 -391 -67 -79 -142 -179 -137
-184 2 -2 30 4 62 14 59 17 59 17 108 -5 28 -13 80 -26 122 -30 87 -8 131 -38
175 -118 16 -29 35 -52 43 -52 8 0 37 11 64 25 45 23 50 23 65 9 18 -18 7 -39
-26 -49 -26 -9 -24 -25 7 -50 17 -14 23 -26 19 -38 -10 -24 -24 -22 -110 20
-71 34 -78 40 -105 94 -30 59 -78 99 -120 99 -24 0 -24 -2 -4 -98 6 -29 4 -32
-18 -32 -27 0 -48 33 -48 73 0 49 -63 97 -127 97 -15 0 -59 -12 -97 -26 l-69
-27 -33 -73 c-19 -40 -50 -119 -69 -176 l-34 -103 622 -3 c469 -2 628 1 645
10 17 9 25 9 34 0 7 -7 46 -12 100 -12 75 0 88 2 88 16 0 31 -41 259 -60 334
-34 135 -120 373 -168 465 -51 97 -123 180 -184 208 -44 21 -157 22 -208 3z"/>
<path d="M5615 998 c-23 -107 -35 -211 -24 -224 17 -21 38 -17 48 9 14 36 35
202 28 220 -10 25 -46 21 -52 -5z"/>
<path d="M8802 994 c-26 -18 -28 -40 -4 -52 9 -5 75 -12 146 -16 310 -16 572
-76 741 -171 35 -19 73 -35 84 -35 47 0 39 65 -11 95 -81 48 -304 127 -428
151 -217 43 -487 57 -528 28z"/>
<path d="M1084 874 c3 -8 2 -13 -2 -10 -4 2 -25 -23 -46 -55 -36 -55 -38 -62
-23 -76 8 -9 22 -13 31 -10 19 8 77 108 72 124 -3 6 0 13 6 15 18 6 -1 28 -24
28 -14 0 -18 -5 -14 -16z"/>
<path d="M8805 797 c-35 -27 -9 -51 66 -59 287 -31 376 -43 462 -64 94 -23
214 -74 299 -126 42 -26 70 -18 76 21 5 32 -12 48 -101 92 -182 92 -375 137
-627 146 -130 4 -158 3 -175 -10z"/>
<path d="M0 603 l0 -181 49 -35 49 -36 -1 -68 c-1 -100 22 -145 117 -221 71
-58 79 -62 128 -62 l51 0 -59 42 c-63 45 -75 57 -68 70 10 16 31 6 109 -52 52
-39 89 -60 108 -60 51 0 32 33 -55 96 -82 58 -98 72 -98 87 0 22 49 0 113 -51
97 -79 115 -88 134 -69 10 10 12 20 7 30 -9 15 -131 109 -166 128 -21 11 -24
49 -5 49 8 0 22 -9 31 -19 35 -39 156 -112 179 -109 47 6 25 39 -68 102 -63
43 -90 67 -90 81 0 31 31 29 73 -3 76 -60 152 -104 167 -99 36 14 14 45 -81
112 -53 37 -99 76 -102 85 -4 10 -20 29 -37 42 -54 45 -90 58 -164 58 l-70 0
-84 88 c-46 48 -102 107 -125 132 l-41 45 -1 -182z"/>
<path d="M1990 711 c-74 -14 -219 -61 -310 -101 -212 -92 -381 -242 -468 -415
-29 -58 -62 -155 -62 -182 0 -10 44 -13 218 -13 l219 0 14 26 c23 44 116 121
185 155 56 28 80 34 155 37 98 5 226 -19 346 -64 105 -40 128 -33 258 76 44
36 116 92 160 122 145 102 172 145 124 197 -45 48 -260 122 -439 151 -89 14
-345 21 -400 11z"/>
<path d="M3691 658 c-25 -26 -31 -40 -31 -76 0 -56 53 -162 82 -162 31 0 33
30 5 81 -15 26 -27 57 -27 69 0 54 48 81 70 40 23 -42 69 -11 49 33 -25 55
-101 63 -148 15z"/>
<path d="M8880 623 c-30 -6 -60 -31 -60 -50 0 -21 44 -33 123 -33 110 0 363
-48 506 -96 89 -30 157 -13 132 33 -13 25 -38 35 -186 73 -209 53 -446 87
-515 73z"/>
<path d="M4467 523 c-16 -15 -4 -41 34 -78 22 -22 45 -51 50 -63 12 -30 -5
-98 -27 -106 -16 -6 -54 9 -54 22 0 16 -73 82 -90 82 -17 0 -30 -19 -30 -44 0
-7 28 -40 62 -74 55 -54 62 -65 61 -99 -1 -45 -31 -73 -76 -73 -24 0 -43 13
-97 70 -37 39 -73 70 -81 70 -42 0 -53 -64 -16 -97 12 -11 44 -35 70 -52 27
-18 53 -44 59 -57 10 -20 18 -24 57 -24 30 0 55 7 71 20 30 24 73 25 130 5
111 -39 195 -26 195 30 0 40 -45 61 -145 70 -78 7 -105 20 -95 47 9 24 53 39
135 48 90 9 107 15 143 48 64 60 16 92 -92 61 -77 -22 -111 -15 -111 21 0 27
22 45 90 76 44 20 62 33 67 52 12 50 -34 51 -97 2 -19 -16 -45 -31 -57 -34
-22 -7 -24 -6 -82 58 -22 24 -59 34 -74 19z"/>
<path d="M10114 369 c-40 -82 -44 -93 -31 -107 9 -8 22 -12 30 -9 11 4 97 156
97 172 0 7 -32 35 -41 35 -5 0 -29 -41 -55 -91z"/>
<path d="M8930 417 c-37 -13 -49 -39 -30 -62 9 -11 34 -15 84 -15 39 0 138
-13 221 -29 163 -31 199 -29 193 12 -5 37 -67 58 -242 83 -185 27 -180 27
-226 11z"/>
<path d="M8251 411 c-12 -8 -13 -20 -2 -83 22 -125 30 -148 52 -148 30 0 33
24 16 122 -20 109 -33 130 -66 109z"/>
<path d="M8461 336 c-9 -11 -8 -27 9 -75 11 -33 20 -71 20 -85 0 -25 20 -39
45 -30 22 9 18 79 -8 144 -23 56 -45 72 -66 46z"/>
<path d="M9008 244 c-23 -7 -33 -43 -17 -59 8 -7 54 -18 102 -25 80 -11 91
-11 105 4 20 20 8 45 -29 63 -27 13 -135 24 -161 17z"/>
<path d="M12447 239 c-21 -13 -19 -32 21 -157 26 -81 27 -82 59 -82 37 0 37
-1 21 37 -6 15 -23 68 -37 117 -15 49 -31 91 -36 92 -6 2 -18 -1 -28 -7z"/>
<path d="M1815 126 c-50 -23 -145 -100 -145 -117 0 -5 146 -9 352 -9 l352 0
-35 26 c-53 40 -168 92 -239 108 -102 24 -224 21 -285 -8z"/>
<path d="M9013 68 c-11 -13 -24 -33 -28 -45 -6 -22 -4 -23 64 -23 67 0 71 1
71 23 0 61 -67 89 -107 45z"/>
<path d="M4080 51 c-22 -42 -14 -51 45 -51 30 0 55 4 55 9 0 4 -9 20 -21 35
-24 31 -64 34 -79 7z"/>
</g>
</svg>
