<svg width="347" height="220" viewBox="0 0 347 220" fill="none" xmlns="http://www.w3.org/2000/svg">
<g filter="url(#filter0_i_60_19)">
<path d="M92.8702 17.4188L92.86 17.4243C53.7524 39.2027 26.4278 64.8239 15.6119 90.6072L15.6082 90.616C3.68206 119.83 -0.409531 136.554 1.62424 149.848C2.63782 156.846 5.41227 164.939 8.95346 172.245C12.4904 179.543 16.8418 186.158 21.0678 190.148C25.2827 194.127 32.6648 198.615 40.7118 202.47C48.7737 206.332 57.6141 209.613 64.801 211.134L64.8074 211.135C85.0424 215.277 125.707 217.9 164.33 218.618C183.656 218.978 202.499 218.861 218.057 218.216C233.573 217.572 245.933 216.401 252.217 214.615L252.226 214.612C267.594 210.092 280.005 204.491 291.457 196.357C302.903 188.226 313.348 177.594 324.818 163.06L324.819 163.059C334.122 151.217 339.287 144.327 342.106 138.821C344.974 133.219 345.417 129.043 345.417 122.72C345.417 115.725 344.336 110.235 341.029 104.426C337.75 98.6676 332.31 92.6489 323.727 84.5229C323.727 84.5227 323.726 84.5224 323.726 84.5221L323.038 85.2483C305.14 68.2609 286.497 56.2698 274.565 54.2713L92.8702 17.4188ZM92.8702 17.4188L121.457 1.93031L121.692 1.80316L121.959 1.80988L141.846 2.30949L141.857 2.30977L141.868 2.31029C149.839 2.68582 155.63 3.25108 160.94 4.48997C166.26 5.73108 171.058 7.63852 177.064 10.6559C183.238 13.6338 187.883 15.4717 193.556 16.7284C199.252 17.9901 206.019 18.6739 216.45 19.298C216.452 19.2981 216.454 19.2982 216.455 19.2983L241.056 20.5469L241.532 20.5711L241.813 20.9562L250.016 32.1968C250.016 32.1971 250.016 32.1973 250.017 32.1976C256.245 40.7097 260.092 45.5421 263.559 48.481C266.95 51.3555 269.993 52.4302 274.737 53.2862L92.8702 17.4188Z" fill="#A25E4B" stroke="black" stroke-width="2"/>
</g>
<defs>
<filter id="filter0_i_60_19" x="0.125732" y="0.796753" width="350.291" height="223.022" filterUnits="userSpaceOnUse" color-interpolation-filters="sRGB">
<feFlood flood-opacity="0" result="BackgroundImageFix"/>
<feBlend mode="normal" in="SourceGraphic" in2="BackgroundImageFix" result="shape"/>
<feColorMatrix in="SourceAlpha" type="matrix" values="0 0 0 0 0 0 0 0 0 0 0 0 0 0 0 0 0 0 127 0" result="hardAlpha"/>
<feOffset dx="10" dy="10"/>
<feGaussianBlur stdDeviation="2"/>
<feComposite in2="hardAlpha" operator="arithmetic" k2="-1" k3="1"/>
<feColorMatrix type="matrix" values="0 0 0 0 0 0 0 0 0 0 0 0 0 0 0 0 0 0 0.72 0"/>
<feBlend mode="normal" in2="shape" result="effect1_innerShadow_60_19"/>
</filter>
</defs>
</svg>
